<?xml version="1.0" encoding="utf-8" standalone="no"?>
<!DOCTYPE svg PUBLIC "-//W3C//DTD SVG 1.1//EN"
  "http://www.w3.org/Graphics/SVG/1.1/DTD/svg11.dtd">
<!-- Created with matplotlib (https://matplotlib.org/) -->
<svg height="216pt" version="1.1" viewBox="0 0 216 216" width="216pt" xmlns="http://www.w3.org/2000/svg" xmlns:xlink="http://www.w3.org/1999/xlink">
 <metadata>
  <rdf:RDF xmlns:cc="http://creativecommons.org/ns#" xmlns:dc="http://purl.org/dc/elements/1.1/" xmlns:rdf="http://www.w3.org/1999/02/22-rdf-syntax-ns#">
   <cc:Work>
    <dc:type rdf:resource="http://purl.org/dc/dcmitype/StillImage"/>
    <dc:date>2025-05-26T14:00:47.649702</dc:date>
    <dc:format>image/svg+xml</dc:format>
    <dc:creator>
     <cc:Agent>
      <dc:title>Matplotlib v3.3.1, https://matplotlib.org/</dc:title>
     </cc:Agent>
    </dc:creator>
   </cc:Work>
  </rdf:RDF>
 </metadata>
 <defs>
  <style type="text/css">*{stroke-linecap:butt;stroke-linejoin:round;}</style>
 </defs>
 <g id="figure_1">
  <g id="patch_1">
   <path d="M 0 216 
L 216 216 
L 216 0 
L 0 0 
z
" style="fill:#ffffff;"/>
  </g>
  <g id="axes_1">
   <g id="patch_2">
    <path d="M 27 192.24 
L 194.4 192.24 
L 194.4 25.92 
L 27 25.92 
z
" style="fill:#ffffff;"/>
   </g>
   <g id="patch_3">
    <path clip-path="url(#p47ace73d8d)" d="M 144.054919 192.24 
L 144.054919 25.92 
L 146.139601 25.92 
L 146.139601 192.24 
z
" style="fill:#ff0000;opacity:0.5;stroke:#ff0000;stroke-linejoin:miter;"/>
   </g>
   <g id="matplotlib.axis_1">
    <g id="xtick_1">
     <g id="line2d_1">
      <defs>
       <path d="M 0 0 
L 0 3.5 
" id="mee5d41a014" style="stroke:#000000;stroke-width:0.8;"/>
      </defs>
      <g>
       <use style="stroke:#000000;stroke-width:0.8;" x="34.609091" xlink:href="#mee5d41a014" y="192.24"/>
      </g>
     </g>
     <g id="text_1">
      <!-- 0 -->
      <g transform="translate(31.427841 206.838437)scale(0.1 -0.1)">
       <defs>
        <path d="M 31.78125 66.40625 
Q 24.171875 66.40625 20.328125 58.90625 
Q 16.5 51.421875 16.5 36.375 
Q 16.5 21.390625 20.328125 13.890625 
Q 24.171875 6.390625 31.78125 6.390625 
Q 39.453125 6.390625 43.28125 13.890625 
Q 47.125 21.390625 47.125 36.375 
Q 47.125 51.421875 43.28125 58.90625 
Q 39.453125 66.40625 31.78125 66.40625 
z
M 31.78125 74.21875 
Q 44.046875 74.21875 50.515625 64.515625 
Q 56.984375 54.828125 56.984375 36.375 
Q 56.984375 17.96875 50.515625 8.265625 
Q 44.046875 -1.421875 31.78125 -1.421875 
Q 19.53125 -1.421875 13.0625 8.265625 
Q 6.59375 17.96875 6.59375 36.375 
Q 6.59375 54.828125 13.0625 64.515625 
Q 19.53125 74.21875 31.78125 74.21875 
z
" id="DejaVuSans-48"/>
       </defs>
       <use xlink:href="#DejaVuSans-48"/>
      </g>
     </g>
    </g>
    <g id="xtick_2">
     <g id="line2d_2">
      <g>
       <use style="stroke:#000000;stroke-width:0.8;" x="76.30274" xlink:href="#mee5d41a014" y="192.24"/>
      </g>
     </g>
     <g id="text_2">
      <!-- 20 -->
      <g transform="translate(69.94024 206.838437)scale(0.1 -0.1)">
       <defs>
        <path d="M 19.1875 8.296875 
L 53.609375 8.296875 
L 53.609375 0 
L 7.328125 0 
L 7.328125 8.296875 
Q 12.9375 14.109375 22.625 23.890625 
Q 32.328125 33.6875 34.8125 36.53125 
Q 39.546875 41.84375 41.421875 45.53125 
Q 43.3125 49.21875 43.3125 52.78125 
Q 43.3125 58.59375 39.234375 62.25 
Q 35.15625 65.921875 28.609375 65.921875 
Q 23.96875 65.921875 18.8125 64.3125 
Q 13.671875 62.703125 7.8125 59.421875 
L 7.8125 69.390625 
Q 13.765625 71.78125 18.9375 73 
Q 24.125 74.21875 28.421875 74.21875 
Q 39.75 74.21875 46.484375 68.546875 
Q 53.21875 62.890625 53.21875 53.421875 
Q 53.21875 48.921875 51.53125 44.890625 
Q 49.859375 40.875 45.40625 35.40625 
Q 44.1875 33.984375 37.640625 27.21875 
Q 31.109375 20.453125 19.1875 8.296875 
z
" id="DejaVuSans-50"/>
       </defs>
       <use xlink:href="#DejaVuSans-50"/>
       <use x="63.623047" xlink:href="#DejaVuSans-48"/>
      </g>
     </g>
    </g>
    <g id="xtick_3">
     <g id="line2d_3">
      <g>
       <use style="stroke:#000000;stroke-width:0.8;" x="117.996389" xlink:href="#mee5d41a014" y="192.24"/>
      </g>
     </g>
     <g id="text_3">
      <!-- 40 -->
      <g transform="translate(111.633889 206.838437)scale(0.1 -0.1)">
       <defs>
        <path d="M 37.796875 64.3125 
L 12.890625 25.390625 
L 37.796875 25.390625 
z
M 35.203125 72.90625 
L 47.609375 72.90625 
L 47.609375 25.390625 
L 58.015625 25.390625 
L 58.015625 17.1875 
L 47.609375 17.1875 
L 47.609375 0 
L 37.796875 0 
L 37.796875 17.1875 
L 4.890625 17.1875 
L 4.890625 26.703125 
z
" id="DejaVuSans-52"/>
       </defs>
       <use xlink:href="#DejaVuSans-52"/>
       <use x="63.623047" xlink:href="#DejaVuSans-48"/>
      </g>
     </g>
    </g>
    <g id="xtick_4">
     <g id="line2d_4">
      <g>
       <use style="stroke:#000000;stroke-width:0.8;" x="159.690037" xlink:href="#mee5d41a014" y="192.24"/>
      </g>
     </g>
     <g id="text_4">
      <!-- 60 -->
      <g transform="translate(153.327537 206.838437)scale(0.1 -0.1)">
       <defs>
        <path d="M 33.015625 40.375 
Q 26.375 40.375 22.484375 35.828125 
Q 18.609375 31.296875 18.609375 23.390625 
Q 18.609375 15.53125 22.484375 10.953125 
Q 26.375 6.390625 33.015625 6.390625 
Q 39.65625 6.390625 43.53125 10.953125 
Q 47.40625 15.53125 47.40625 23.390625 
Q 47.40625 31.296875 43.53125 35.828125 
Q 39.65625 40.375 33.015625 40.375 
z
M 52.59375 71.296875 
L 52.59375 62.3125 
Q 48.875 64.0625 45.09375 64.984375 
Q 41.3125 65.921875 37.59375 65.921875 
Q 27.828125 65.921875 22.671875 59.328125 
Q 17.53125 52.734375 16.796875 39.40625 
Q 19.671875 43.65625 24.015625 45.921875 
Q 28.375 48.1875 33.59375 48.1875 
Q 44.578125 48.1875 50.953125 41.515625 
Q 57.328125 34.859375 57.328125 23.390625 
Q 57.328125 12.15625 50.6875 5.359375 
Q 44.046875 -1.421875 33.015625 -1.421875 
Q 20.359375 -1.421875 13.671875 8.265625 
Q 6.984375 17.96875 6.984375 36.375 
Q 6.984375 53.65625 15.1875 63.9375 
Q 23.390625 74.21875 37.203125 74.21875 
Q 40.921875 74.21875 44.703125 73.484375 
Q 48.484375 72.75 52.59375 71.296875 
z
" id="DejaVuSans-54"/>
       </defs>
       <use xlink:href="#DejaVuSans-54"/>
       <use x="63.623047" xlink:href="#DejaVuSans-48"/>
      </g>
     </g>
    </g>
   </g>
   <g id="matplotlib.axis_2">
    <g id="ytick_1">
     <g id="line2d_5">
      <defs>
       <path d="M 0 0 
L -3.5 0 
" id="md5b6245871" style="stroke:#000000;stroke-width:0.8;"/>
      </defs>
      <g>
       <use style="stroke:#000000;stroke-width:0.8;" x="27" xlink:href="#md5b6245871" y="133.331401"/>
      </g>
     </g>
     <g id="text_5">
      <!-- $\mathdefault{10^{-3}}$ -->
      <g transform="translate(-3.5 137.13062)scale(0.1 -0.1)">
       <defs>
        <path d="M 12.40625 8.296875 
L 28.515625 8.296875 
L 28.515625 63.921875 
L 10.984375 60.40625 
L 10.984375 69.390625 
L 28.421875 72.90625 
L 38.28125 72.90625 
L 38.28125 8.296875 
L 54.390625 8.296875 
L 54.390625 0 
L 12.40625 0 
z
" id="DejaVuSans-49"/>
        <path d="M 10.59375 35.5 
L 73.1875 35.5 
L 73.1875 27.203125 
L 10.59375 27.203125 
z
" id="DejaVuSans-8722"/>
        <path d="M 40.578125 39.3125 
Q 47.65625 37.796875 51.625 33 
Q 55.609375 28.21875 55.609375 21.1875 
Q 55.609375 10.40625 48.1875 4.484375 
Q 40.765625 -1.421875 27.09375 -1.421875 
Q 22.515625 -1.421875 17.65625 -0.515625 
Q 12.796875 0.390625 7.625 2.203125 
L 7.625 11.71875 
Q 11.71875 9.328125 16.59375 8.109375 
Q 21.484375 6.890625 26.8125 6.890625 
Q 36.078125 6.890625 40.9375 10.546875 
Q 45.796875 14.203125 45.796875 21.1875 
Q 45.796875 27.640625 41.28125 31.265625 
Q 36.765625 34.90625 28.71875 34.90625 
L 20.21875 34.90625 
L 20.21875 43.015625 
L 29.109375 43.015625 
Q 36.375 43.015625 40.234375 45.921875 
Q 44.09375 48.828125 44.09375 54.296875 
Q 44.09375 59.90625 40.109375 62.90625 
Q 36.140625 65.921875 28.71875 65.921875 
Q 24.65625 65.921875 20.015625 65.03125 
Q 15.375 64.15625 9.8125 62.3125 
L 9.8125 71.09375 
Q 15.4375 72.65625 20.34375 73.4375 
Q 25.25 74.21875 29.59375 74.21875 
Q 40.828125 74.21875 47.359375 69.109375 
Q 53.90625 64.015625 53.90625 55.328125 
Q 53.90625 49.265625 50.4375 45.09375 
Q 46.96875 40.921875 40.578125 39.3125 
z
" id="DejaVuSans-51"/>
       </defs>
       <use transform="translate(0 0.765625)" xlink:href="#DejaVuSans-49"/>
       <use transform="translate(63.623047 0.765625)" xlink:href="#DejaVuSans-48"/>
       <use transform="translate(128.203125 39.046875)scale(0.7)" xlink:href="#DejaVuSans-8722"/>
       <use transform="translate(186.855469 39.046875)scale(0.7)" xlink:href="#DejaVuSans-51"/>
      </g>
     </g>
    </g>
    <g id="ytick_2">
     <g id="line2d_6">
      <g>
       <use style="stroke:#000000;stroke-width:0.8;" x="27" xlink:href="#md5b6245871" y="65.461721"/>
      </g>
     </g>
     <g id="text_6">
      <!-- $\mathdefault{10^{-2}}$ -->
      <g transform="translate(-3.5 69.26094)scale(0.1 -0.1)">
       <use transform="translate(0 0.765625)" xlink:href="#DejaVuSans-49"/>
       <use transform="translate(63.623047 0.765625)" xlink:href="#DejaVuSans-48"/>
       <use transform="translate(128.203125 39.046875)scale(0.7)" xlink:href="#DejaVuSans-8722"/>
       <use transform="translate(186.855469 39.046875)scale(0.7)" xlink:href="#DejaVuSans-50"/>
      </g>
     </g>
    </g>
    <g id="ytick_3">
     <g id="line2d_7">
      <defs>
       <path d="M 0 0 
L -2 0 
" id="mc5d0df13a4" style="stroke:#000000;stroke-width:0.6;"/>
      </defs>
      <g>
       <use style="stroke:#000000;stroke-width:0.6;" x="27" xlink:href="#mc5d0df13a4" y="180.770272"/>
      </g>
     </g>
    </g>
    <g id="ytick_4">
     <g id="line2d_8">
      <g>
       <use style="stroke:#000000;stroke-width:0.6;" x="27" xlink:href="#mc5d0df13a4" y="168.819014"/>
      </g>
     </g>
    </g>
    <g id="ytick_5">
     <g id="line2d_9">
      <g>
       <use style="stroke:#000000;stroke-width:0.6;" x="27" xlink:href="#mc5d0df13a4" y="160.339462"/>
      </g>
     </g>
    </g>
    <g id="ytick_6">
     <g id="line2d_10">
      <g>
       <use style="stroke:#000000;stroke-width:0.6;" x="27" xlink:href="#mc5d0df13a4" y="153.76221"/>
      </g>
     </g>
    </g>
    <g id="ytick_7">
     <g id="line2d_11">
      <g>
       <use style="stroke:#000000;stroke-width:0.6;" x="27" xlink:href="#mc5d0df13a4" y="148.388205"/>
      </g>
     </g>
    </g>
    <g id="ytick_8">
     <g id="line2d_12">
      <g>
       <use style="stroke:#000000;stroke-width:0.6;" x="27" xlink:href="#mc5d0df13a4" y="143.844547"/>
      </g>
     </g>
    </g>
    <g id="ytick_9">
     <g id="line2d_13">
      <g>
       <use style="stroke:#000000;stroke-width:0.6;" x="27" xlink:href="#mc5d0df13a4" y="139.908653"/>
      </g>
     </g>
    </g>
    <g id="ytick_10">
     <g id="line2d_14">
      <g>
       <use style="stroke:#000000;stroke-width:0.6;" x="27" xlink:href="#mc5d0df13a4" y="136.436947"/>
      </g>
     </g>
    </g>
    <g id="ytick_11">
     <g id="line2d_15">
      <g>
       <use style="stroke:#000000;stroke-width:0.6;" x="27" xlink:href="#mc5d0df13a4" y="112.900591"/>
      </g>
     </g>
    </g>
    <g id="ytick_12">
     <g id="line2d_16">
      <g>
       <use style="stroke:#000000;stroke-width:0.6;" x="27" xlink:href="#mc5d0df13a4" y="100.949334"/>
      </g>
     </g>
    </g>
    <g id="ytick_13">
     <g id="line2d_17">
      <g>
       <use style="stroke:#000000;stroke-width:0.6;" x="27" xlink:href="#mc5d0df13a4" y="92.469782"/>
      </g>
     </g>
    </g>
    <g id="ytick_14">
     <g id="line2d_18">
      <g>
       <use style="stroke:#000000;stroke-width:0.6;" x="27" xlink:href="#mc5d0df13a4" y="85.89253"/>
      </g>
     </g>
    </g>
    <g id="ytick_15">
     <g id="line2d_19">
      <g>
       <use style="stroke:#000000;stroke-width:0.6;" x="27" xlink:href="#mc5d0df13a4" y="80.518525"/>
      </g>
     </g>
    </g>
    <g id="ytick_16">
     <g id="line2d_20">
      <g>
       <use style="stroke:#000000;stroke-width:0.6;" x="27" xlink:href="#mc5d0df13a4" y="75.974867"/>
      </g>
     </g>
    </g>
    <g id="ytick_17">
     <g id="line2d_21">
      <g>
       <use style="stroke:#000000;stroke-width:0.6;" x="27" xlink:href="#mc5d0df13a4" y="72.038972"/>
      </g>
     </g>
    </g>
    <g id="ytick_18">
     <g id="line2d_22">
      <g>
       <use style="stroke:#000000;stroke-width:0.6;" x="27" xlink:href="#mc5d0df13a4" y="68.567267"/>
      </g>
     </g>
    </g>
    <g id="ytick_19">
     <g id="line2d_23">
      <g>
       <use style="stroke:#000000;stroke-width:0.6;" x="27" xlink:href="#mc5d0df13a4" y="45.030911"/>
      </g>
     </g>
    </g>
    <g id="ytick_20">
     <g id="line2d_24">
      <g>
       <use style="stroke:#000000;stroke-width:0.6;" x="27" xlink:href="#mc5d0df13a4" y="33.079654"/>
      </g>
     </g>
    </g>
    <g id="text_7">
     <!-- MSE -->
     <g transform="translate(-9.579688 119.727656)rotate(-90)scale(0.1 -0.1)">
      <defs>
       <path d="M 9.8125 72.90625 
L 24.515625 72.90625 
L 43.109375 23.296875 
L 61.8125 72.90625 
L 76.515625 72.90625 
L 76.515625 0 
L 66.890625 0 
L 66.890625 64.015625 
L 48.09375 14.015625 
L 38.1875 14.015625 
L 19.390625 64.015625 
L 19.390625 0 
L 9.8125 0 
z
" id="DejaVuSans-77"/>
       <path d="M 53.515625 70.515625 
L 53.515625 60.890625 
Q 47.90625 63.578125 42.921875 64.890625 
Q 37.9375 66.21875 33.296875 66.21875 
Q 25.25 66.21875 20.875 63.09375 
Q 16.5 59.96875 16.5 54.203125 
Q 16.5 49.359375 19.40625 46.890625 
Q 22.3125 44.4375 30.421875 42.921875 
L 36.375 41.703125 
Q 47.40625 39.59375 52.65625 34.296875 
Q 57.90625 29 57.90625 20.125 
Q 57.90625 9.515625 50.796875 4.046875 
Q 43.703125 -1.421875 29.984375 -1.421875 
Q 24.8125 -1.421875 18.96875 -0.25 
Q 13.140625 0.921875 6.890625 3.21875 
L 6.890625 13.375 
Q 12.890625 10.015625 18.65625 8.296875 
Q 24.421875 6.59375 29.984375 6.59375 
Q 38.421875 6.59375 43.015625 9.90625 
Q 47.609375 13.234375 47.609375 19.390625 
Q 47.609375 24.75 44.3125 27.78125 
Q 41.015625 30.8125 33.5 32.328125 
L 27.484375 33.5 
Q 16.453125 35.6875 11.515625 40.375 
Q 6.59375 45.0625 6.59375 53.421875 
Q 6.59375 63.09375 13.40625 68.65625 
Q 20.21875 74.21875 32.171875 74.21875 
Q 37.3125 74.21875 42.625 73.28125 
Q 47.953125 72.359375 53.515625 70.515625 
z
" id="DejaVuSans-83"/>
       <path d="M 9.8125 72.90625 
L 55.90625 72.90625 
L 55.90625 64.59375 
L 19.671875 64.59375 
L 19.671875 43.015625 
L 54.390625 43.015625 
L 54.390625 34.71875 
L 19.671875 34.71875 
L 19.671875 8.296875 
L 56.78125 8.296875 
L 56.78125 0 
L 9.8125 0 
z
" id="DejaVuSans-69"/>
      </defs>
      <use xlink:href="#DejaVuSans-77"/>
      <use x="86.279297" xlink:href="#DejaVuSans-83"/>
      <use x="149.755859" xlink:href="#DejaVuSans-69"/>
     </g>
    </g>
   </g>
   <g id="line2d_25">
    <path clip-path="url(#p47ace73d8d)" d="M 34.609091 56.978625 
L 36.693773 66.741989 
L 38.778456 58.95536 
L 40.863138 78.204679 
L 42.947821 94.125029 
L 45.032503 99.559169 
L 47.117186 105.78622 
L 49.201868 82.656336 
L 51.28655 110.807147 
L 53.371233 113.405852 
L 55.455915 102.205764 
L 57.540598 118.336887 
L 59.62528 128.616171 
L 61.709963 120.509107 
L 63.794645 126.485612 
L 65.879328 113.446005 
L 67.96401 117.664666 
L 70.048692 143.605582 
L 72.133375 114.140128 
L 74.218057 125.041018 
L 76.30274 127.258758 
L 78.387422 140.780551 
L 80.472105 141.221615 
L 82.556787 156.154051 
L 84.641469 147.244355 
L 86.726152 148.171412 
L 88.810834 149.003385 
L 90.895517 147.330049 
L 92.980199 156.724345 
L 95.064882 151.963829 
L 97.149564 154.000021 
L 99.234247 159.935965 
L 101.318929 156.824768 
L 103.403611 155.506879 
L 105.488294 166.85488 
L 107.572976 149.973232 
L 109.657659 156.236203 
L 111.742341 161.195034 
L 113.827024 173.20671 
L 115.911706 167.208877 
L 117.996389 165.369598 
L 120.081071 168.877158 
L 122.165753 163.884592 
L 124.250436 158.311527 
L 126.335118 170.892037 
L 128.419801 176.581644 
L 130.504483 169.333545 
L 132.589166 158.397913 
L 134.673848 176.308302 
L 136.758531 169.633874 
L 138.843213 171.601368 
L 140.927895 170.174293 
L 143.012578 173.31342 
L 145.09726 184.68 
L 147.181943 177.711901 
L 149.266625 175.77645 
L 151.351308 171.222141 
L 153.43599 175.812486 
L 155.520672 174.086734 
L 157.605355 174.66521 
L 159.690037 172.465811 
L 161.77472 175.367698 
L 163.859402 176.727925 
L 165.944085 173.399272 
L 168.028767 177.684435 
L 170.11345 179.020645 
L 172.198132 176.059186 
L 174.282814 179.712755 
L 176.367497 184.460006 
L 178.452179 177.655685 
L 180.536862 171.596325 
L 182.621544 178.749122 
L 184.706227 181.431926 
L 186.790909 178.28227 
" style="fill:none;stroke:#ff0000;stroke-linecap:square;stroke-width:1.5;"/>
    <defs>
     <path d="M 0 1.5 
C 0.397805 1.5 0.77937 1.341951 1.06066 1.06066 
C 1.341951 0.77937 1.5 0.397805 1.5 0 
C 1.5 -0.397805 1.341951 -0.77937 1.06066 -1.06066 
C 0.77937 -1.341951 0.397805 -1.5 0 -1.5 
C -0.397805 -1.5 -0.77937 -1.341951 -1.06066 -1.06066 
C -1.341951 -0.77937 -1.5 -0.397805 -1.5 0 
C -1.5 0.397805 -1.341951 0.77937 -1.06066 1.06066 
C -0.77937 1.341951 -0.397805 1.5 0 1.5 
z
" id="m203487ba20" style="stroke:#ff0000;"/>
    </defs>
    <g clip-path="url(#p47ace73d8d)">
     <use style="fill:#ff0000;stroke:#ff0000;" x="34.609091" xlink:href="#m203487ba20" y="56.978625"/>
     <use style="fill:#ff0000;stroke:#ff0000;" x="36.693773" xlink:href="#m203487ba20" y="66.741989"/>
     <use style="fill:#ff0000;stroke:#ff0000;" x="38.778456" xlink:href="#m203487ba20" y="58.95536"/>
     <use style="fill:#ff0000;stroke:#ff0000;" x="40.863138" xlink:href="#m203487ba20" y="78.204679"/>
     <use style="fill:#ff0000;stroke:#ff0000;" x="42.947821" xlink:href="#m203487ba20" y="94.125029"/>
     <use style="fill:#ff0000;stroke:#ff0000;" x="45.032503" xlink:href="#m203487ba20" y="99.559169"/>
     <use style="fill:#ff0000;stroke:#ff0000;" x="47.117186" xlink:href="#m203487ba20" y="105.78622"/>
     <use style="fill:#ff0000;stroke:#ff0000;" x="49.201868" xlink:href="#m203487ba20" y="82.656336"/>
     <use style="fill:#ff0000;stroke:#ff0000;" x="51.28655" xlink:href="#m203487ba20" y="110.807147"/>
     <use style="fill:#ff0000;stroke:#ff0000;" x="53.371233" xlink:href="#m203487ba20" y="113.405852"/>
     <use style="fill:#ff0000;stroke:#ff0000;" x="55.455915" xlink:href="#m203487ba20" y="102.205764"/>
     <use style="fill:#ff0000;stroke:#ff0000;" x="57.540598" xlink:href="#m203487ba20" y="118.336887"/>
     <use style="fill:#ff0000;stroke:#ff0000;" x="59.62528" xlink:href="#m203487ba20" y="128.616171"/>
     <use style="fill:#ff0000;stroke:#ff0000;" x="61.709963" xlink:href="#m203487ba20" y="120.509107"/>
     <use style="fill:#ff0000;stroke:#ff0000;" x="63.794645" xlink:href="#m203487ba20" y="126.485612"/>
     <use style="fill:#ff0000;stroke:#ff0000;" x="65.879328" xlink:href="#m203487ba20" y="113.446005"/>
     <use style="fill:#ff0000;stroke:#ff0000;" x="67.96401" xlink:href="#m203487ba20" y="117.664666"/>
     <use style="fill:#ff0000;stroke:#ff0000;" x="70.048692" xlink:href="#m203487ba20" y="143.605582"/>
     <use style="fill:#ff0000;stroke:#ff0000;" x="72.133375" xlink:href="#m203487ba20" y="114.140128"/>
     <use style="fill:#ff0000;stroke:#ff0000;" x="74.218057" xlink:href="#m203487ba20" y="125.041018"/>
     <use style="fill:#ff0000;stroke:#ff0000;" x="76.30274" xlink:href="#m203487ba20" y="127.258758"/>
     <use style="fill:#ff0000;stroke:#ff0000;" x="78.387422" xlink:href="#m203487ba20" y="140.780551"/>
     <use style="fill:#ff0000;stroke:#ff0000;" x="80.472105" xlink:href="#m203487ba20" y="141.221615"/>
     <use style="fill:#ff0000;stroke:#ff0000;" x="82.556787" xlink:href="#m203487ba20" y="156.154051"/>
     <use style="fill:#ff0000;stroke:#ff0000;" x="84.641469" xlink:href="#m203487ba20" y="147.244355"/>
     <use style="fill:#ff0000;stroke:#ff0000;" x="86.726152" xlink:href="#m203487ba20" y="148.171412"/>
     <use style="fill:#ff0000;stroke:#ff0000;" x="88.810834" xlink:href="#m203487ba20" y="149.003385"/>
     <use style="fill:#ff0000;stroke:#ff0000;" x="90.895517" xlink:href="#m203487ba20" y="147.330049"/>
     <use style="fill:#ff0000;stroke:#ff0000;" x="92.980199" xlink:href="#m203487ba20" y="156.724345"/>
     <use style="fill:#ff0000;stroke:#ff0000;" x="95.064882" xlink:href="#m203487ba20" y="151.963829"/>
     <use style="fill:#ff0000;stroke:#ff0000;" x="97.149564" xlink:href="#m203487ba20" y="154.000021"/>
     <use style="fill:#ff0000;stroke:#ff0000;" x="99.234247" xlink:href="#m203487ba20" y="159.935965"/>
     <use style="fill:#ff0000;stroke:#ff0000;" x="101.318929" xlink:href="#m203487ba20" y="156.824768"/>
     <use style="fill:#ff0000;stroke:#ff0000;" x="103.403611" xlink:href="#m203487ba20" y="155.506879"/>
     <use style="fill:#ff0000;stroke:#ff0000;" x="105.488294" xlink:href="#m203487ba20" y="166.85488"/>
     <use style="fill:#ff0000;stroke:#ff0000;" x="107.572976" xlink:href="#m203487ba20" y="149.973232"/>
     <use style="fill:#ff0000;stroke:#ff0000;" x="109.657659" xlink:href="#m203487ba20" y="156.236203"/>
     <use style="fill:#ff0000;stroke:#ff0000;" x="111.742341" xlink:href="#m203487ba20" y="161.195034"/>
     <use style="fill:#ff0000;stroke:#ff0000;" x="113.827024" xlink:href="#m203487ba20" y="173.20671"/>
     <use style="fill:#ff0000;stroke:#ff0000;" x="115.911706" xlink:href="#m203487ba20" y="167.208877"/>
     <use style="fill:#ff0000;stroke:#ff0000;" x="117.996389" xlink:href="#m203487ba20" y="165.369598"/>
     <use style="fill:#ff0000;stroke:#ff0000;" x="120.081071" xlink:href="#m203487ba20" y="168.877158"/>
     <use style="fill:#ff0000;stroke:#ff0000;" x="122.165753" xlink:href="#m203487ba20" y="163.884592"/>
     <use style="fill:#ff0000;stroke:#ff0000;" x="124.250436" xlink:href="#m203487ba20" y="158.311527"/>
     <use style="fill:#ff0000;stroke:#ff0000;" x="126.335118" xlink:href="#m203487ba20" y="170.892037"/>
     <use style="fill:#ff0000;stroke:#ff0000;" x="128.419801" xlink:href="#m203487ba20" y="176.581644"/>
     <use style="fill:#ff0000;stroke:#ff0000;" x="130.504483" xlink:href="#m203487ba20" y="169.333545"/>
     <use style="fill:#ff0000;stroke:#ff0000;" x="132.589166" xlink:href="#m203487ba20" y="158.397913"/>
     <use style="fill:#ff0000;stroke:#ff0000;" x="134.673848" xlink:href="#m203487ba20" y="176.308302"/>
     <use style="fill:#ff0000;stroke:#ff0000;" x="136.758531" xlink:href="#m203487ba20" y="169.633874"/>
     <use style="fill:#ff0000;stroke:#ff0000;" x="138.843213" xlink:href="#m203487ba20" y="171.601368"/>
     <use style="fill:#ff0000;stroke:#ff0000;" x="140.927895" xlink:href="#m203487ba20" y="170.174293"/>
     <use style="fill:#ff0000;stroke:#ff0000;" x="143.012578" xlink:href="#m203487ba20" y="173.31342"/>
     <use style="fill:#ff0000;stroke:#ff0000;" x="145.09726" xlink:href="#m203487ba20" y="184.68"/>
     <use style="fill:#ff0000;stroke:#ff0000;" x="147.181943" xlink:href="#m203487ba20" y="177.711901"/>
     <use style="fill:#ff0000;stroke:#ff0000;" x="149.266625" xlink:href="#m203487ba20" y="175.77645"/>
     <use style="fill:#ff0000;stroke:#ff0000;" x="151.351308" xlink:href="#m203487ba20" y="171.222141"/>
     <use style="fill:#ff0000;stroke:#ff0000;" x="153.43599" xlink:href="#m203487ba20" y="175.812486"/>
     <use style="fill:#ff0000;stroke:#ff0000;" x="155.520672" xlink:href="#m203487ba20" y="174.086734"/>
     <use style="fill:#ff0000;stroke:#ff0000;" x="157.605355" xlink:href="#m203487ba20" y="174.66521"/>
     <use style="fill:#ff0000;stroke:#ff0000;" x="159.690037" xlink:href="#m203487ba20" y="172.465811"/>
     <use style="fill:#ff0000;stroke:#ff0000;" x="161.77472" xlink:href="#m203487ba20" y="175.367698"/>
     <use style="fill:#ff0000;stroke:#ff0000;" x="163.859402" xlink:href="#m203487ba20" y="176.727925"/>
     <use style="fill:#ff0000;stroke:#ff0000;" x="165.944085" xlink:href="#m203487ba20" y="173.399272"/>
     <use style="fill:#ff0000;stroke:#ff0000;" x="168.028767" xlink:href="#m203487ba20" y="177.684435"/>
     <use style="fill:#ff0000;stroke:#ff0000;" x="170.11345" xlink:href="#m203487ba20" y="179.020645"/>
     <use style="fill:#ff0000;stroke:#ff0000;" x="172.198132" xlink:href="#m203487ba20" y="176.059186"/>
     <use style="fill:#ff0000;stroke:#ff0000;" x="174.282814" xlink:href="#m203487ba20" y="179.712755"/>
     <use style="fill:#ff0000;stroke:#ff0000;" x="176.367497" xlink:href="#m203487ba20" y="184.460006"/>
     <use style="fill:#ff0000;stroke:#ff0000;" x="178.452179" xlink:href="#m203487ba20" y="177.655685"/>
     <use style="fill:#ff0000;stroke:#ff0000;" x="180.536862" xlink:href="#m203487ba20" y="171.596325"/>
     <use style="fill:#ff0000;stroke:#ff0000;" x="182.621544" xlink:href="#m203487ba20" y="178.749122"/>
     <use style="fill:#ff0000;stroke:#ff0000;" x="184.706227" xlink:href="#m203487ba20" y="181.431926"/>
     <use style="fill:#ff0000;stroke:#ff0000;" x="186.790909" xlink:href="#m203487ba20" y="178.28227"/>
    </g>
   </g>
   <g id="line2d_26">
    <path clip-path="url(#p47ace73d8d)" d="M 34.609091 33.48 
L 36.693773 56.140325 
L 38.778456 62.50036 
L 40.863138 66.697141 
L 42.947821 71.49064 
L 45.032503 75.547134 
L 47.117186 77.38849 
L 49.201868 80.84116 
L 51.28655 83.025355 
L 53.371233 85.699281 
L 55.455915 87.615819 
L 57.540598 88.560528 
L 59.62528 90.88609 
L 61.709963 90.674965 
L 63.794645 92.307464 
L 65.879328 92.740958 
L 67.96401 94.055539 
L 70.048692 94.949795 
L 72.133375 96.045745 
L 74.218057 95.992354 
L 76.30274 97.563881 
L 78.387422 96.709689 
L 80.472105 97.965565 
L 82.556787 99.842381 
L 84.641469 99.252416 
L 86.726152 101.122148 
L 88.810834 100.233251 
L 90.895517 100.888551 
L 92.980199 100.584949 
L 95.064882 101.023697 
L 97.149564 101.150137 
L 99.234247 101.928789 
L 101.318929 102.181121 
L 103.403611 102.807425 
L 105.488294 102.812905 
L 107.572976 103.099599 
L 109.657659 103.129394 
L 111.742341 103.591231 
L 113.827024 103.139497 
L 115.911706 103.18038 
L 117.996389 103.938149 
L 120.081071 103.876298 
L 122.165753 104.80285 
L 124.250436 103.850242 
L 126.335118 104.379624 
L 128.419801 103.717901 
L 130.504483 104.306629 
L 132.589166 103.903429 
L 134.673848 105.075561 
L 136.758531 104.71055 
L 138.843213 104.662757 
L 140.927895 104.54163 
L 143.012578 104.577382 
L 145.09726 104.363988 
L 147.181943 105.474418 
L 149.266625 105.163463 
L 151.351308 104.953866 
L 153.43599 104.012993 
L 155.520672 104.561315 
L 157.605355 104.627516 
L 159.690037 105.374366 
L 161.77472 105.355162 
L 163.859402 104.53344 
L 165.944085 105.277193 
L 168.028767 105.156441 
L 170.11345 104.895584 
L 172.198132 105.095003 
L 174.282814 105.923946 
L 176.367497 104.906955 
L 178.452179 104.900737 
L 180.536862 105.018679 
L 182.621544 104.910006 
L 184.706227 105.352689 
L 186.790909 104.912589 
" style="fill:none;stroke:#ffa500;stroke-linecap:square;stroke-width:1.5;"/>
    <defs>
     <path d="M 0 1.5 
C 0.397805 1.5 0.77937 1.341951 1.06066 1.06066 
C 1.341951 0.77937 1.5 0.397805 1.5 0 
C 1.5 -0.397805 1.341951 -0.77937 1.06066 -1.06066 
C 0.77937 -1.341951 0.397805 -1.5 0 -1.5 
C -0.397805 -1.5 -0.77937 -1.341951 -1.06066 -1.06066 
C -1.341951 -0.77937 -1.5 -0.397805 -1.5 0 
C -1.5 0.397805 -1.341951 0.77937 -1.06066 1.06066 
C -0.77937 1.341951 -0.397805 1.5 0 1.5 
z
" id="mbab35bdbc6" style="stroke:#ffa500;"/>
    </defs>
    <g clip-path="url(#p47ace73d8d)">
     <use style="fill:#ffa500;stroke:#ffa500;" x="34.609091" xlink:href="#mbab35bdbc6" y="33.48"/>
     <use style="fill:#ffa500;stroke:#ffa500;" x="36.693773" xlink:href="#mbab35bdbc6" y="56.140325"/>
     <use style="fill:#ffa500;stroke:#ffa500;" x="38.778456" xlink:href="#mbab35bdbc6" y="62.50036"/>
     <use style="fill:#ffa500;stroke:#ffa500;" x="40.863138" xlink:href="#mbab35bdbc6" y="66.697141"/>
     <use style="fill:#ffa500;stroke:#ffa500;" x="42.947821" xlink:href="#mbab35bdbc6" y="71.49064"/>
     <use style="fill:#ffa500;stroke:#ffa500;" x="45.032503" xlink:href="#mbab35bdbc6" y="75.547134"/>
     <use style="fill:#ffa500;stroke:#ffa500;" x="47.117186" xlink:href="#mbab35bdbc6" y="77.38849"/>
     <use style="fill:#ffa500;stroke:#ffa500;" x="49.201868" xlink:href="#mbab35bdbc6" y="80.84116"/>
     <use style="fill:#ffa500;stroke:#ffa500;" x="51.28655" xlink:href="#mbab35bdbc6" y="83.025355"/>
     <use style="fill:#ffa500;stroke:#ffa500;" x="53.371233" xlink:href="#mbab35bdbc6" y="85.699281"/>
     <use style="fill:#ffa500;stroke:#ffa500;" x="55.455915" xlink:href="#mbab35bdbc6" y="87.615819"/>
     <use style="fill:#ffa500;stroke:#ffa500;" x="57.540598" xlink:href="#mbab35bdbc6" y="88.560528"/>
     <use style="fill:#ffa500;stroke:#ffa500;" x="59.62528" xlink:href="#mbab35bdbc6" y="90.88609"/>
     <use style="fill:#ffa500;stroke:#ffa500;" x="61.709963" xlink:href="#mbab35bdbc6" y="90.674965"/>
     <use style="fill:#ffa500;stroke:#ffa500;" x="63.794645" xlink:href="#mbab35bdbc6" y="92.307464"/>
     <use style="fill:#ffa500;stroke:#ffa500;" x="65.879328" xlink:href="#mbab35bdbc6" y="92.740958"/>
     <use style="fill:#ffa500;stroke:#ffa500;" x="67.96401" xlink:href="#mbab35bdbc6" y="94.055539"/>
     <use style="fill:#ffa500;stroke:#ffa500;" x="70.048692" xlink:href="#mbab35bdbc6" y="94.949795"/>
     <use style="fill:#ffa500;stroke:#ffa500;" x="72.133375" xlink:href="#mbab35bdbc6" y="96.045745"/>
     <use style="fill:#ffa500;stroke:#ffa500;" x="74.218057" xlink:href="#mbab35bdbc6" y="95.992354"/>
     <use style="fill:#ffa500;stroke:#ffa500;" x="76.30274" xlink:href="#mbab35bdbc6" y="97.563881"/>
     <use style="fill:#ffa500;stroke:#ffa500;" x="78.387422" xlink:href="#mbab35bdbc6" y="96.709689"/>
     <use style="fill:#ffa500;stroke:#ffa500;" x="80.472105" xlink:href="#mbab35bdbc6" y="97.965565"/>
     <use style="fill:#ffa500;stroke:#ffa500;" x="82.556787" xlink:href="#mbab35bdbc6" y="99.842381"/>
     <use style="fill:#ffa500;stroke:#ffa500;" x="84.641469" xlink:href="#mbab35bdbc6" y="99.252416"/>
     <use style="fill:#ffa500;stroke:#ffa500;" x="86.726152" xlink:href="#mbab35bdbc6" y="101.122148"/>
     <use style="fill:#ffa500;stroke:#ffa500;" x="88.810834" xlink:href="#mbab35bdbc6" y="100.233251"/>
     <use style="fill:#ffa500;stroke:#ffa500;" x="90.895517" xlink:href="#mbab35bdbc6" y="100.888551"/>
     <use style="fill:#ffa500;stroke:#ffa500;" x="92.980199" xlink:href="#mbab35bdbc6" y="100.584949"/>
     <use style="fill:#ffa500;stroke:#ffa500;" x="95.064882" xlink:href="#mbab35bdbc6" y="101.023697"/>
     <use style="fill:#ffa500;stroke:#ffa500;" x="97.149564" xlink:href="#mbab35bdbc6" y="101.150137"/>
     <use style="fill:#ffa500;stroke:#ffa500;" x="99.234247" xlink:href="#mbab35bdbc6" y="101.928789"/>
     <use style="fill:#ffa500;stroke:#ffa500;" x="101.318929" xlink:href="#mbab35bdbc6" y="102.181121"/>
     <use style="fill:#ffa500;stroke:#ffa500;" x="103.403611" xlink:href="#mbab35bdbc6" y="102.807425"/>
     <use style="fill:#ffa500;stroke:#ffa500;" x="105.488294" xlink:href="#mbab35bdbc6" y="102.812905"/>
     <use style="fill:#ffa500;stroke:#ffa500;" x="107.572976" xlink:href="#mbab35bdbc6" y="103.099599"/>
     <use style="fill:#ffa500;stroke:#ffa500;" x="109.657659" xlink:href="#mbab35bdbc6" y="103.129394"/>
     <use style="fill:#ffa500;stroke:#ffa500;" x="111.742341" xlink:href="#mbab35bdbc6" y="103.591231"/>
     <use style="fill:#ffa500;stroke:#ffa500;" x="113.827024" xlink:href="#mbab35bdbc6" y="103.139497"/>
     <use style="fill:#ffa500;stroke:#ffa500;" x="115.911706" xlink:href="#mbab35bdbc6" y="103.18038"/>
     <use style="fill:#ffa500;stroke:#ffa500;" x="117.996389" xlink:href="#mbab35bdbc6" y="103.938149"/>
     <use style="fill:#ffa500;stroke:#ffa500;" x="120.081071" xlink:href="#mbab35bdbc6" y="103.876298"/>
     <use style="fill:#ffa500;stroke:#ffa500;" x="122.165753" xlink:href="#mbab35bdbc6" y="104.80285"/>
     <use style="fill:#ffa500;stroke:#ffa500;" x="124.250436" xlink:href="#mbab35bdbc6" y="103.850242"/>
     <use style="fill:#ffa500;stroke:#ffa500;" x="126.335118" xlink:href="#mbab35bdbc6" y="104.379624"/>
     <use style="fill:#ffa500;stroke:#ffa500;" x="128.419801" xlink:href="#mbab35bdbc6" y="103.717901"/>
     <use style="fill:#ffa500;stroke:#ffa500;" x="130.504483" xlink:href="#mbab35bdbc6" y="104.306629"/>
     <use style="fill:#ffa500;stroke:#ffa500;" x="132.589166" xlink:href="#mbab35bdbc6" y="103.903429"/>
     <use style="fill:#ffa500;stroke:#ffa500;" x="134.673848" xlink:href="#mbab35bdbc6" y="105.075561"/>
     <use style="fill:#ffa500;stroke:#ffa500;" x="136.758531" xlink:href="#mbab35bdbc6" y="104.71055"/>
     <use style="fill:#ffa500;stroke:#ffa500;" x="138.843213" xlink:href="#mbab35bdbc6" y="104.662757"/>
     <use style="fill:#ffa500;stroke:#ffa500;" x="140.927895" xlink:href="#mbab35bdbc6" y="104.54163"/>
     <use style="fill:#ffa500;stroke:#ffa500;" x="143.012578" xlink:href="#mbab35bdbc6" y="104.577382"/>
     <use style="fill:#ffa500;stroke:#ffa500;" x="145.09726" xlink:href="#mbab35bdbc6" y="104.363988"/>
     <use style="fill:#ffa500;stroke:#ffa500;" x="147.181943" xlink:href="#mbab35bdbc6" y="105.474418"/>
     <use style="fill:#ffa500;stroke:#ffa500;" x="149.266625" xlink:href="#mbab35bdbc6" y="105.163463"/>
     <use style="fill:#ffa500;stroke:#ffa500;" x="151.351308" xlink:href="#mbab35bdbc6" y="104.953866"/>
     <use style="fill:#ffa500;stroke:#ffa500;" x="153.43599" xlink:href="#mbab35bdbc6" y="104.012993"/>
     <use style="fill:#ffa500;stroke:#ffa500;" x="155.520672" xlink:href="#mbab35bdbc6" y="104.561315"/>
     <use style="fill:#ffa500;stroke:#ffa500;" x="157.605355" xlink:href="#mbab35bdbc6" y="104.627516"/>
     <use style="fill:#ffa500;stroke:#ffa500;" x="159.690037" xlink:href="#mbab35bdbc6" y="105.374366"/>
     <use style="fill:#ffa500;stroke:#ffa500;" x="161.77472" xlink:href="#mbab35bdbc6" y="105.355162"/>
     <use style="fill:#ffa500;stroke:#ffa500;" x="163.859402" xlink:href="#mbab35bdbc6" y="104.53344"/>
     <use style="fill:#ffa500;stroke:#ffa500;" x="165.944085" xlink:href="#mbab35bdbc6" y="105.277193"/>
     <use style="fill:#ffa500;stroke:#ffa500;" x="168.028767" xlink:href="#mbab35bdbc6" y="105.156441"/>
     <use style="fill:#ffa500;stroke:#ffa500;" x="170.11345" xlink:href="#mbab35bdbc6" y="104.895584"/>
     <use style="fill:#ffa500;stroke:#ffa500;" x="172.198132" xlink:href="#mbab35bdbc6" y="105.095003"/>
     <use style="fill:#ffa500;stroke:#ffa500;" x="174.282814" xlink:href="#mbab35bdbc6" y="105.923946"/>
     <use style="fill:#ffa500;stroke:#ffa500;" x="176.367497" xlink:href="#mbab35bdbc6" y="104.906955"/>
     <use style="fill:#ffa500;stroke:#ffa500;" x="178.452179" xlink:href="#mbab35bdbc6" y="104.900737"/>
     <use style="fill:#ffa500;stroke:#ffa500;" x="180.536862" xlink:href="#mbab35bdbc6" y="105.018679"/>
     <use style="fill:#ffa500;stroke:#ffa500;" x="182.621544" xlink:href="#mbab35bdbc6" y="104.910006"/>
     <use style="fill:#ffa500;stroke:#ffa500;" x="184.706227" xlink:href="#mbab35bdbc6" y="105.352689"/>
     <use style="fill:#ffa500;stroke:#ffa500;" x="186.790909" xlink:href="#mbab35bdbc6" y="104.912589"/>
    </g>
   </g>
   <g id="patch_4">
    <path d="M 27 192.24 
L 27 25.92 
" style="fill:none;stroke:#000000;stroke-linecap:square;stroke-linejoin:miter;stroke-width:0.8;"/>
   </g>
   <g id="patch_5">
    <path d="M 194.4 192.24 
L 194.4 25.92 
" style="fill:none;stroke:#000000;stroke-linecap:square;stroke-linejoin:miter;stroke-width:0.8;"/>
   </g>
   <g id="patch_6">
    <path d="M 27 192.24 
L 194.4 192.24 
" style="fill:none;stroke:#000000;stroke-linecap:square;stroke-linejoin:miter;stroke-width:0.8;"/>
   </g>
   <g id="patch_7">
    <path d="M 27 25.92 
L 194.4 25.92 
" style="fill:none;stroke:#000000;stroke-linecap:square;stroke-linejoin:miter;stroke-width:0.8;"/>
   </g>
   <g id="legend_1">
    <g id="patch_8">
     <path d="M 106.165625 63.27625 
L 187.4 63.27625 
Q 189.4 63.27625 189.4 61.27625 
L 189.4 32.92 
Q 189.4 30.92 187.4 30.92 
L 106.165625 30.92 
Q 104.165625 30.92 104.165625 32.92 
L 104.165625 61.27625 
Q 104.165625 63.27625 106.165625 63.27625 
z
" style="fill:#ffffff;opacity:0.8;stroke:#cccccc;stroke-linejoin:miter;"/>
    </g>
    <g id="line2d_27">
     <path d="M 108.165625 39.018437 
L 128.165625 39.018437 
" style="fill:none;stroke:#ff0000;stroke-linecap:square;stroke-width:1.5;"/>
    </g>
    <g id="line2d_28">
     <g>
      <use style="fill:#ff0000;stroke:#ff0000;" x="118.165625" xlink:href="#m203487ba20" y="39.018437"/>
     </g>
    </g>
    <g id="text_8">
     <!-- validation -->
     <g transform="translate(136.165625 42.518437)scale(0.1 -0.1)">
      <defs>
       <path d="M 2.984375 54.6875 
L 12.5 54.6875 
L 29.59375 8.796875 
L 46.6875 54.6875 
L 56.203125 54.6875 
L 35.6875 0 
L 23.484375 0 
z
" id="DejaVuSans-118"/>
       <path d="M 34.28125 27.484375 
Q 23.390625 27.484375 19.1875 25 
Q 14.984375 22.515625 14.984375 16.5 
Q 14.984375 11.71875 18.140625 8.90625 
Q 21.296875 6.109375 26.703125 6.109375 
Q 34.1875 6.109375 38.703125 11.40625 
Q 43.21875 16.703125 43.21875 25.484375 
L 43.21875 27.484375 
z
M 52.203125 31.203125 
L 52.203125 0 
L 43.21875 0 
L 43.21875 8.296875 
Q 40.140625 3.328125 35.546875 0.953125 
Q 30.953125 -1.421875 24.3125 -1.421875 
Q 15.921875 -1.421875 10.953125 3.296875 
Q 6 8.015625 6 15.921875 
Q 6 25.140625 12.171875 29.828125 
Q 18.359375 34.515625 30.609375 34.515625 
L 43.21875 34.515625 
L 43.21875 35.40625 
Q 43.21875 41.609375 39.140625 45 
Q 35.0625 48.390625 27.6875 48.390625 
Q 23 48.390625 18.546875 47.265625 
Q 14.109375 46.140625 10.015625 43.890625 
L 10.015625 52.203125 
Q 14.9375 54.109375 19.578125 55.046875 
Q 24.21875 56 28.609375 56 
Q 40.484375 56 46.34375 49.84375 
Q 52.203125 43.703125 52.203125 31.203125 
z
" id="DejaVuSans-97"/>
       <path d="M 9.421875 75.984375 
L 18.40625 75.984375 
L 18.40625 0 
L 9.421875 0 
z
" id="DejaVuSans-108"/>
       <path d="M 9.421875 54.6875 
L 18.40625 54.6875 
L 18.40625 0 
L 9.421875 0 
z
M 9.421875 75.984375 
L 18.40625 75.984375 
L 18.40625 64.59375 
L 9.421875 64.59375 
z
" id="DejaVuSans-105"/>
       <path d="M 45.40625 46.390625 
L 45.40625 75.984375 
L 54.390625 75.984375 
L 54.390625 0 
L 45.40625 0 
L 45.40625 8.203125 
Q 42.578125 3.328125 38.25 0.953125 
Q 33.9375 -1.421875 27.875 -1.421875 
Q 17.96875 -1.421875 11.734375 6.484375 
Q 5.515625 14.40625 5.515625 27.296875 
Q 5.515625 40.1875 11.734375 48.09375 
Q 17.96875 56 27.875 56 
Q 33.9375 56 38.25 53.625 
Q 42.578125 51.265625 45.40625 46.390625 
z
M 14.796875 27.296875 
Q 14.796875 17.390625 18.875 11.75 
Q 22.953125 6.109375 30.078125 6.109375 
Q 37.203125 6.109375 41.296875 11.75 
Q 45.40625 17.390625 45.40625 27.296875 
Q 45.40625 37.203125 41.296875 42.84375 
Q 37.203125 48.484375 30.078125 48.484375 
Q 22.953125 48.484375 18.875 42.84375 
Q 14.796875 37.203125 14.796875 27.296875 
z
" id="DejaVuSans-100"/>
       <path d="M 18.3125 70.21875 
L 18.3125 54.6875 
L 36.8125 54.6875 
L 36.8125 47.703125 
L 18.3125 47.703125 
L 18.3125 18.015625 
Q 18.3125 11.328125 20.140625 9.421875 
Q 21.96875 7.515625 27.59375 7.515625 
L 36.8125 7.515625 
L 36.8125 0 
L 27.59375 0 
Q 17.1875 0 13.234375 3.875 
Q 9.28125 7.765625 9.28125 18.015625 
L 9.28125 47.703125 
L 2.6875 47.703125 
L 2.6875 54.6875 
L 9.28125 54.6875 
L 9.28125 70.21875 
z
" id="DejaVuSans-116"/>
       <path d="M 30.609375 48.390625 
Q 23.390625 48.390625 19.1875 42.75 
Q 14.984375 37.109375 14.984375 27.296875 
Q 14.984375 17.484375 19.15625 11.84375 
Q 23.34375 6.203125 30.609375 6.203125 
Q 37.796875 6.203125 41.984375 11.859375 
Q 46.1875 17.53125 46.1875 27.296875 
Q 46.1875 37.015625 41.984375 42.703125 
Q 37.796875 48.390625 30.609375 48.390625 
z
M 30.609375 56 
Q 42.328125 56 49.015625 48.375 
Q 55.71875 40.765625 55.71875 27.296875 
Q 55.71875 13.875 49.015625 6.21875 
Q 42.328125 -1.421875 30.609375 -1.421875 
Q 18.84375 -1.421875 12.171875 6.21875 
Q 5.515625 13.875 5.515625 27.296875 
Q 5.515625 40.765625 12.171875 48.375 
Q 18.84375 56 30.609375 56 
z
" id="DejaVuSans-111"/>
       <path d="M 54.890625 33.015625 
L 54.890625 0 
L 45.90625 0 
L 45.90625 32.71875 
Q 45.90625 40.484375 42.875 44.328125 
Q 39.84375 48.1875 33.796875 48.1875 
Q 26.515625 48.1875 22.3125 43.546875 
Q 18.109375 38.921875 18.109375 30.90625 
L 18.109375 0 
L 9.078125 0 
L 9.078125 54.6875 
L 18.109375 54.6875 
L 18.109375 46.1875 
Q 21.34375 51.125 25.703125 53.5625 
Q 30.078125 56 35.796875 56 
Q 45.21875 56 50.046875 50.171875 
Q 54.890625 44.34375 54.890625 33.015625 
z
" id="DejaVuSans-110"/>
      </defs>
      <use xlink:href="#DejaVuSans-118"/>
      <use x="59.179688" xlink:href="#DejaVuSans-97"/>
      <use x="120.458984" xlink:href="#DejaVuSans-108"/>
      <use x="148.242188" xlink:href="#DejaVuSans-105"/>
      <use x="176.025391" xlink:href="#DejaVuSans-100"/>
      <use x="239.501953" xlink:href="#DejaVuSans-97"/>
      <use x="300.78125" xlink:href="#DejaVuSans-116"/>
      <use x="339.990234" xlink:href="#DejaVuSans-105"/>
      <use x="367.773438" xlink:href="#DejaVuSans-111"/>
      <use x="428.955078" xlink:href="#DejaVuSans-110"/>
     </g>
    </g>
    <g id="line2d_29">
     <path d="M 108.165625 53.696562 
L 128.165625 53.696562 
" style="fill:none;stroke:#ffa500;stroke-linecap:square;stroke-width:1.5;"/>
    </g>
    <g id="line2d_30">
     <g>
      <use style="fill:#ffa500;stroke:#ffa500;" x="118.165625" xlink:href="#mbab35bdbc6" y="53.696562"/>
     </g>
    </g>
    <g id="text_9">
     <!-- train -->
     <g transform="translate(136.165625 57.196562)scale(0.1 -0.1)">
      <defs>
       <path d="M 41.109375 46.296875 
Q 39.59375 47.171875 37.8125 47.578125 
Q 36.03125 48 33.890625 48 
Q 26.265625 48 22.1875 43.046875 
Q 18.109375 38.09375 18.109375 28.8125 
L 18.109375 0 
L 9.078125 0 
L 9.078125 54.6875 
L 18.109375 54.6875 
L 18.109375 46.1875 
Q 20.953125 51.171875 25.484375 53.578125 
Q 30.03125 56 36.53125 56 
Q 37.453125 56 38.578125 55.875 
Q 39.703125 55.765625 41.0625 55.515625 
z
" id="DejaVuSans-114"/>
      </defs>
      <use xlink:href="#DejaVuSans-116"/>
      <use x="39.208984" xlink:href="#DejaVuSans-114"/>
      <use x="80.322266" xlink:href="#DejaVuSans-97"/>
      <use x="141.601562" xlink:href="#DejaVuSans-105"/>
      <use x="169.384766" xlink:href="#DejaVuSans-110"/>
     </g>
    </g>
   </g>
  </g>
 </g>
 <defs>
  <clipPath id="p47ace73d8d">
   <rect height="166.32" width="167.4" x="27" y="25.92"/>
  </clipPath>
 </defs>
</svg>
