<?xml version="1.0" encoding="utf-8" standalone="no"?>
<!DOCTYPE svg PUBLIC "-//W3C//DTD SVG 1.1//EN"
  "http://www.w3.org/Graphics/SVG/1.1/DTD/svg11.dtd">
<!-- Created with matplotlib (https://matplotlib.org/) -->
<svg height="345.6pt" version="1.1" viewBox="0 0 460.8 345.6" width="460.8pt" xmlns="http://www.w3.org/2000/svg" xmlns:xlink="http://www.w3.org/1999/xlink">
 <metadata>
  <rdf:RDF xmlns:cc="http://creativecommons.org/ns#" xmlns:dc="http://purl.org/dc/elements/1.1/" xmlns:rdf="http://www.w3.org/1999/02/22-rdf-syntax-ns#">
   <cc:Work>
    <dc:type rdf:resource="http://purl.org/dc/dcmitype/StillImage"/>
    <dc:date>2025-05-26T14:16:42.155806</dc:date>
    <dc:format>image/svg+xml</dc:format>
    <dc:creator>
     <cc:Agent>
      <dc:title>Matplotlib v3.3.1, https://matplotlib.org/</dc:title>
     </cc:Agent>
    </dc:creator>
   </cc:Work>
  </rdf:RDF>
 </metadata>
 <defs>
  <style type="text/css">*{stroke-linecap:butt;stroke-linejoin:round;}</style>
 </defs>
 <g id="figure_1">
  <g id="patch_1">
   <path d="M 0 345.6 
L 460.8 345.6 
L 460.8 0 
L 0 0 
z
" style="fill:#ffffff;"/>
  </g>
  <g id="axes_1">
   <g id="patch_2">
    <path d="M 57.6 307.584 
L 414.72 307.584 
L 414.72 41.472 
L 57.6 41.472 
z
" style="fill:#ffffff;"/>
   </g>
   <g id="matplotlib.axis_1">
    <g id="xtick_1">
     <g id="line2d_1">
      <defs>
       <path d="M 0 0 
L 0 3.5 
" id="m43a73e5fc6" style="stroke:#000000;stroke-width:0.8;"/>
      </defs>
      <g>
       <use style="stroke:#000000;stroke-width:0.8;" x="93.312" xlink:href="#m43a73e5fc6" y="307.584"/>
      </g>
     </g>
     <g id="text_1">
      <!-- −4 -->
      <g transform="translate(85.940906 322.182437)scale(0.1 -0.1)">
       <defs>
        <path d="M 10.59375 35.5 
L 73.1875 35.5 
L 73.1875 27.203125 
L 10.59375 27.203125 
z
" id="DejaVuSans-8722"/>
        <path d="M 37.796875 64.3125 
L 12.890625 25.390625 
L 37.796875 25.390625 
z
M 35.203125 72.90625 
L 47.609375 72.90625 
L 47.609375 25.390625 
L 58.015625 25.390625 
L 58.015625 17.1875 
L 47.609375 17.1875 
L 47.609375 0 
L 37.796875 0 
L 37.796875 17.1875 
L 4.890625 17.1875 
L 4.890625 26.703125 
z
" id="DejaVuSans-52"/>
       </defs>
       <use xlink:href="#DejaVuSans-8722"/>
       <use x="83.789062" xlink:href="#DejaVuSans-52"/>
      </g>
     </g>
    </g>
    <g id="xtick_2">
     <g id="line2d_2">
      <g>
       <use style="stroke:#000000;stroke-width:0.8;" x="164.736" xlink:href="#m43a73e5fc6" y="307.584"/>
      </g>
     </g>
     <g id="text_2">
      <!-- −2 -->
      <g transform="translate(157.364906 322.182437)scale(0.1 -0.1)">
       <defs>
        <path d="M 19.1875 8.296875 
L 53.609375 8.296875 
L 53.609375 0 
L 7.328125 0 
L 7.328125 8.296875 
Q 12.9375 14.109375 22.625 23.890625 
Q 32.328125 33.6875 34.8125 36.53125 
Q 39.546875 41.84375 41.421875 45.53125 
Q 43.3125 49.21875 43.3125 52.78125 
Q 43.3125 58.59375 39.234375 62.25 
Q 35.15625 65.921875 28.609375 65.921875 
Q 23.96875 65.921875 18.8125 64.3125 
Q 13.671875 62.703125 7.8125 59.421875 
L 7.8125 69.390625 
Q 13.765625 71.78125 18.9375 73 
Q 24.125 74.21875 28.421875 74.21875 
Q 39.75 74.21875 46.484375 68.546875 
Q 53.21875 62.890625 53.21875 53.421875 
Q 53.21875 48.921875 51.53125 44.890625 
Q 49.859375 40.875 45.40625 35.40625 
Q 44.1875 33.984375 37.640625 27.21875 
Q 31.109375 20.453125 19.1875 8.296875 
z
" id="DejaVuSans-50"/>
       </defs>
       <use xlink:href="#DejaVuSans-8722"/>
       <use x="83.789062" xlink:href="#DejaVuSans-50"/>
      </g>
     </g>
    </g>
    <g id="xtick_3">
     <g id="line2d_3">
      <g>
       <use style="stroke:#000000;stroke-width:0.8;" x="236.16" xlink:href="#m43a73e5fc6" y="307.584"/>
      </g>
     </g>
     <g id="text_3">
      <!-- 0 -->
      <g transform="translate(232.97875 322.182437)scale(0.1 -0.1)">
       <defs>
        <path d="M 31.78125 66.40625 
Q 24.171875 66.40625 20.328125 58.90625 
Q 16.5 51.421875 16.5 36.375 
Q 16.5 21.390625 20.328125 13.890625 
Q 24.171875 6.390625 31.78125 6.390625 
Q 39.453125 6.390625 43.28125 13.890625 
Q 47.125 21.390625 47.125 36.375 
Q 47.125 51.421875 43.28125 58.90625 
Q 39.453125 66.40625 31.78125 66.40625 
z
M 31.78125 74.21875 
Q 44.046875 74.21875 50.515625 64.515625 
Q 56.984375 54.828125 56.984375 36.375 
Q 56.984375 17.96875 50.515625 8.265625 
Q 44.046875 -1.421875 31.78125 -1.421875 
Q 19.53125 -1.421875 13.0625 8.265625 
Q 6.59375 17.96875 6.59375 36.375 
Q 6.59375 54.828125 13.0625 64.515625 
Q 19.53125 74.21875 31.78125 74.21875 
z
" id="DejaVuSans-48"/>
       </defs>
       <use xlink:href="#DejaVuSans-48"/>
      </g>
     </g>
    </g>
    <g id="xtick_4">
     <g id="line2d_4">
      <g>
       <use style="stroke:#000000;stroke-width:0.8;" x="307.584" xlink:href="#m43a73e5fc6" y="307.584"/>
      </g>
     </g>
     <g id="text_4">
      <!-- 2 -->
      <g transform="translate(304.40275 322.182437)scale(0.1 -0.1)">
       <use xlink:href="#DejaVuSans-50"/>
      </g>
     </g>
    </g>
    <g id="xtick_5">
     <g id="line2d_5">
      <g>
       <use style="stroke:#000000;stroke-width:0.8;" x="379.008" xlink:href="#m43a73e5fc6" y="307.584"/>
      </g>
     </g>
     <g id="text_5">
      <!-- 4 -->
      <g transform="translate(375.82675 322.182437)scale(0.1 -0.1)">
       <use xlink:href="#DejaVuSans-52"/>
      </g>
     </g>
    </g>
    <g id="text_6">
     <!-- transcriptional phase -->
     <g transform="translate(183.231094 335.860562)scale(0.1 -0.1)">
      <defs>
       <path d="M 18.3125 70.21875 
L 18.3125 54.6875 
L 36.8125 54.6875 
L 36.8125 47.703125 
L 18.3125 47.703125 
L 18.3125 18.015625 
Q 18.3125 11.328125 20.140625 9.421875 
Q 21.96875 7.515625 27.59375 7.515625 
L 36.8125 7.515625 
L 36.8125 0 
L 27.59375 0 
Q 17.1875 0 13.234375 3.875 
Q 9.28125 7.765625 9.28125 18.015625 
L 9.28125 47.703125 
L 2.6875 47.703125 
L 2.6875 54.6875 
L 9.28125 54.6875 
L 9.28125 70.21875 
z
" id="DejaVuSans-116"/>
       <path d="M 41.109375 46.296875 
Q 39.59375 47.171875 37.8125 47.578125 
Q 36.03125 48 33.890625 48 
Q 26.265625 48 22.1875 43.046875 
Q 18.109375 38.09375 18.109375 28.8125 
L 18.109375 0 
L 9.078125 0 
L 9.078125 54.6875 
L 18.109375 54.6875 
L 18.109375 46.1875 
Q 20.953125 51.171875 25.484375 53.578125 
Q 30.03125 56 36.53125 56 
Q 37.453125 56 38.578125 55.875 
Q 39.703125 55.765625 41.0625 55.515625 
z
" id="DejaVuSans-114"/>
       <path d="M 34.28125 27.484375 
Q 23.390625 27.484375 19.1875 25 
Q 14.984375 22.515625 14.984375 16.5 
Q 14.984375 11.71875 18.140625 8.90625 
Q 21.296875 6.109375 26.703125 6.109375 
Q 34.1875 6.109375 38.703125 11.40625 
Q 43.21875 16.703125 43.21875 25.484375 
L 43.21875 27.484375 
z
M 52.203125 31.203125 
L 52.203125 0 
L 43.21875 0 
L 43.21875 8.296875 
Q 40.140625 3.328125 35.546875 0.953125 
Q 30.953125 -1.421875 24.3125 -1.421875 
Q 15.921875 -1.421875 10.953125 3.296875 
Q 6 8.015625 6 15.921875 
Q 6 25.140625 12.171875 29.828125 
Q 18.359375 34.515625 30.609375 34.515625 
L 43.21875 34.515625 
L 43.21875 35.40625 
Q 43.21875 41.609375 39.140625 45 
Q 35.0625 48.390625 27.6875 48.390625 
Q 23 48.390625 18.546875 47.265625 
Q 14.109375 46.140625 10.015625 43.890625 
L 10.015625 52.203125 
Q 14.9375 54.109375 19.578125 55.046875 
Q 24.21875 56 28.609375 56 
Q 40.484375 56 46.34375 49.84375 
Q 52.203125 43.703125 52.203125 31.203125 
z
" id="DejaVuSans-97"/>
       <path d="M 54.890625 33.015625 
L 54.890625 0 
L 45.90625 0 
L 45.90625 32.71875 
Q 45.90625 40.484375 42.875 44.328125 
Q 39.84375 48.1875 33.796875 48.1875 
Q 26.515625 48.1875 22.3125 43.546875 
Q 18.109375 38.921875 18.109375 30.90625 
L 18.109375 0 
L 9.078125 0 
L 9.078125 54.6875 
L 18.109375 54.6875 
L 18.109375 46.1875 
Q 21.34375 51.125 25.703125 53.5625 
Q 30.078125 56 35.796875 56 
Q 45.21875 56 50.046875 50.171875 
Q 54.890625 44.34375 54.890625 33.015625 
z
" id="DejaVuSans-110"/>
       <path d="M 44.28125 53.078125 
L 44.28125 44.578125 
Q 40.484375 46.53125 36.375 47.5 
Q 32.28125 48.484375 27.875 48.484375 
Q 21.1875 48.484375 17.84375 46.4375 
Q 14.5 44.390625 14.5 40.28125 
Q 14.5 37.15625 16.890625 35.375 
Q 19.28125 33.59375 26.515625 31.984375 
L 29.59375 31.296875 
Q 39.15625 29.25 43.1875 25.515625 
Q 47.21875 21.78125 47.21875 15.09375 
Q 47.21875 7.46875 41.1875 3.015625 
Q 35.15625 -1.421875 24.609375 -1.421875 
Q 20.21875 -1.421875 15.453125 -0.5625 
Q 10.6875 0.296875 5.421875 2 
L 5.421875 11.28125 
Q 10.40625 8.6875 15.234375 7.390625 
Q 20.0625 6.109375 24.8125 6.109375 
Q 31.15625 6.109375 34.5625 8.28125 
Q 37.984375 10.453125 37.984375 14.40625 
Q 37.984375 18.0625 35.515625 20.015625 
Q 33.0625 21.96875 24.703125 23.78125 
L 21.578125 24.515625 
Q 13.234375 26.265625 9.515625 29.90625 
Q 5.8125 33.546875 5.8125 39.890625 
Q 5.8125 47.609375 11.28125 51.796875 
Q 16.75 56 26.8125 56 
Q 31.78125 56 36.171875 55.265625 
Q 40.578125 54.546875 44.28125 53.078125 
z
" id="DejaVuSans-115"/>
       <path d="M 48.78125 52.59375 
L 48.78125 44.1875 
Q 44.96875 46.296875 41.140625 47.34375 
Q 37.3125 48.390625 33.40625 48.390625 
Q 24.65625 48.390625 19.8125 42.84375 
Q 14.984375 37.3125 14.984375 27.296875 
Q 14.984375 17.28125 19.8125 11.734375 
Q 24.65625 6.203125 33.40625 6.203125 
Q 37.3125 6.203125 41.140625 7.25 
Q 44.96875 8.296875 48.78125 10.40625 
L 48.78125 2.09375 
Q 45.015625 0.34375 40.984375 -0.53125 
Q 36.96875 -1.421875 32.421875 -1.421875 
Q 20.0625 -1.421875 12.78125 6.34375 
Q 5.515625 14.109375 5.515625 27.296875 
Q 5.515625 40.671875 12.859375 48.328125 
Q 20.21875 56 33.015625 56 
Q 37.15625 56 41.109375 55.140625 
Q 45.0625 54.296875 48.78125 52.59375 
z
" id="DejaVuSans-99"/>
       <path d="M 9.421875 54.6875 
L 18.40625 54.6875 
L 18.40625 0 
L 9.421875 0 
z
M 9.421875 75.984375 
L 18.40625 75.984375 
L 18.40625 64.59375 
L 9.421875 64.59375 
z
" id="DejaVuSans-105"/>
       <path d="M 18.109375 8.203125 
L 18.109375 -20.796875 
L 9.078125 -20.796875 
L 9.078125 54.6875 
L 18.109375 54.6875 
L 18.109375 46.390625 
Q 20.953125 51.265625 25.265625 53.625 
Q 29.59375 56 35.59375 56 
Q 45.5625 56 51.78125 48.09375 
Q 58.015625 40.1875 58.015625 27.296875 
Q 58.015625 14.40625 51.78125 6.484375 
Q 45.5625 -1.421875 35.59375 -1.421875 
Q 29.59375 -1.421875 25.265625 0.953125 
Q 20.953125 3.328125 18.109375 8.203125 
z
M 48.6875 27.296875 
Q 48.6875 37.203125 44.609375 42.84375 
Q 40.53125 48.484375 33.40625 48.484375 
Q 26.265625 48.484375 22.1875 42.84375 
Q 18.109375 37.203125 18.109375 27.296875 
Q 18.109375 17.390625 22.1875 11.75 
Q 26.265625 6.109375 33.40625 6.109375 
Q 40.53125 6.109375 44.609375 11.75 
Q 48.6875 17.390625 48.6875 27.296875 
z
" id="DejaVuSans-112"/>
       <path d="M 30.609375 48.390625 
Q 23.390625 48.390625 19.1875 42.75 
Q 14.984375 37.109375 14.984375 27.296875 
Q 14.984375 17.484375 19.15625 11.84375 
Q 23.34375 6.203125 30.609375 6.203125 
Q 37.796875 6.203125 41.984375 11.859375 
Q 46.1875 17.53125 46.1875 27.296875 
Q 46.1875 37.015625 41.984375 42.703125 
Q 37.796875 48.390625 30.609375 48.390625 
z
M 30.609375 56 
Q 42.328125 56 49.015625 48.375 
Q 55.71875 40.765625 55.71875 27.296875 
Q 55.71875 13.875 49.015625 6.21875 
Q 42.328125 -1.421875 30.609375 -1.421875 
Q 18.84375 -1.421875 12.171875 6.21875 
Q 5.515625 13.875 5.515625 27.296875 
Q 5.515625 40.765625 12.171875 48.375 
Q 18.84375 56 30.609375 56 
z
" id="DejaVuSans-111"/>
       <path d="M 9.421875 75.984375 
L 18.40625 75.984375 
L 18.40625 0 
L 9.421875 0 
z
" id="DejaVuSans-108"/>
       <path id="DejaVuSans-32"/>
       <path d="M 54.890625 33.015625 
L 54.890625 0 
L 45.90625 0 
L 45.90625 32.71875 
Q 45.90625 40.484375 42.875 44.328125 
Q 39.84375 48.1875 33.796875 48.1875 
Q 26.515625 48.1875 22.3125 43.546875 
Q 18.109375 38.921875 18.109375 30.90625 
L 18.109375 0 
L 9.078125 0 
L 9.078125 75.984375 
L 18.109375 75.984375 
L 18.109375 46.1875 
Q 21.34375 51.125 25.703125 53.5625 
Q 30.078125 56 35.796875 56 
Q 45.21875 56 50.046875 50.171875 
Q 54.890625 44.34375 54.890625 33.015625 
z
" id="DejaVuSans-104"/>
       <path d="M 56.203125 29.59375 
L 56.203125 25.203125 
L 14.890625 25.203125 
Q 15.484375 15.921875 20.484375 11.0625 
Q 25.484375 6.203125 34.421875 6.203125 
Q 39.59375 6.203125 44.453125 7.46875 
Q 49.3125 8.734375 54.109375 11.28125 
L 54.109375 2.78125 
Q 49.265625 0.734375 44.1875 -0.34375 
Q 39.109375 -1.421875 33.890625 -1.421875 
Q 20.796875 -1.421875 13.15625 6.1875 
Q 5.515625 13.8125 5.515625 26.8125 
Q 5.515625 40.234375 12.765625 48.109375 
Q 20.015625 56 32.328125 56 
Q 43.359375 56 49.78125 48.890625 
Q 56.203125 41.796875 56.203125 29.59375 
z
M 47.21875 32.234375 
Q 47.125 39.59375 43.09375 43.984375 
Q 39.0625 48.390625 32.421875 48.390625 
Q 24.90625 48.390625 20.390625 44.140625 
Q 15.875 39.890625 15.1875 32.171875 
z
" id="DejaVuSans-101"/>
      </defs>
      <use xlink:href="#DejaVuSans-116"/>
      <use x="39.208984" xlink:href="#DejaVuSans-114"/>
      <use x="80.322266" xlink:href="#DejaVuSans-97"/>
      <use x="141.601562" xlink:href="#DejaVuSans-110"/>
      <use x="204.980469" xlink:href="#DejaVuSans-115"/>
      <use x="257.080078" xlink:href="#DejaVuSans-99"/>
      <use x="312.060547" xlink:href="#DejaVuSans-114"/>
      <use x="353.173828" xlink:href="#DejaVuSans-105"/>
      <use x="380.957031" xlink:href="#DejaVuSans-112"/>
      <use x="444.433594" xlink:href="#DejaVuSans-116"/>
      <use x="483.642578" xlink:href="#DejaVuSans-105"/>
      <use x="511.425781" xlink:href="#DejaVuSans-111"/>
      <use x="572.607422" xlink:href="#DejaVuSans-110"/>
      <use x="635.986328" xlink:href="#DejaVuSans-97"/>
      <use x="697.265625" xlink:href="#DejaVuSans-108"/>
      <use x="725.048828" xlink:href="#DejaVuSans-32"/>
      <use x="756.835938" xlink:href="#DejaVuSans-112"/>
      <use x="820.3125" xlink:href="#DejaVuSans-104"/>
      <use x="883.691406" xlink:href="#DejaVuSans-97"/>
      <use x="944.970703" xlink:href="#DejaVuSans-115"/>
      <use x="997.070312" xlink:href="#DejaVuSans-101"/>
     </g>
    </g>
   </g>
   <g id="matplotlib.axis_2">
    <g id="ytick_1">
     <g id="line2d_6">
      <defs>
       <path d="M 0 0 
L -3.5 0 
" id="mac7a9798c5" style="stroke:#000000;stroke-width:0.8;"/>
      </defs>
      <g>
       <use style="stroke:#000000;stroke-width:0.8;" x="57.6" xlink:href="#mac7a9798c5" y="280.9728"/>
      </g>
     </g>
     <g id="text_7">
      <!-- −4 -->
      <g transform="translate(35.857813 284.772019)scale(0.1 -0.1)">
       <use xlink:href="#DejaVuSans-8722"/>
       <use x="83.789062" xlink:href="#DejaVuSans-52"/>
      </g>
     </g>
    </g>
    <g id="ytick_2">
     <g id="line2d_7">
      <g>
       <use style="stroke:#000000;stroke-width:0.8;" x="57.6" xlink:href="#mac7a9798c5" y="227.7504"/>
      </g>
     </g>
     <g id="text_8">
      <!-- −2 -->
      <g transform="translate(35.857813 231.549619)scale(0.1 -0.1)">
       <use xlink:href="#DejaVuSans-8722"/>
       <use x="83.789062" xlink:href="#DejaVuSans-50"/>
      </g>
     </g>
    </g>
    <g id="ytick_3">
     <g id="line2d_8">
      <g>
       <use style="stroke:#000000;stroke-width:0.8;" x="57.6" xlink:href="#mac7a9798c5" y="174.528"/>
      </g>
     </g>
     <g id="text_9">
      <!-- 0 -->
      <g transform="translate(44.2375 178.327219)scale(0.1 -0.1)">
       <use xlink:href="#DejaVuSans-48"/>
      </g>
     </g>
    </g>
    <g id="ytick_4">
     <g id="line2d_9">
      <g>
       <use style="stroke:#000000;stroke-width:0.8;" x="57.6" xlink:href="#mac7a9798c5" y="121.3056"/>
      </g>
     </g>
     <g id="text_10">
      <!-- 2 -->
      <g transform="translate(44.2375 125.104819)scale(0.1 -0.1)">
       <use xlink:href="#DejaVuSans-50"/>
      </g>
     </g>
    </g>
    <g id="ytick_5">
     <g id="line2d_10">
      <g>
       <use style="stroke:#000000;stroke-width:0.8;" x="57.6" xlink:href="#mac7a9798c5" y="68.0832"/>
      </g>
     </g>
     <g id="text_11">
      <!-- 4 -->
      <g transform="translate(44.2375 71.882419)scale(0.1 -0.1)">
       <use xlink:href="#DejaVuSans-52"/>
      </g>
     </g>
    </g>
    <g id="text_12">
     <!-- expression (z-score) -->
     <g transform="translate(29.778125 224.848312)rotate(-90)scale(0.1 -0.1)">
      <defs>
       <path d="M 54.890625 54.6875 
L 35.109375 28.078125 
L 55.90625 0 
L 45.3125 0 
L 29.390625 21.484375 
L 13.484375 0 
L 2.875 0 
L 24.125 28.609375 
L 4.6875 54.6875 
L 15.28125 54.6875 
L 29.78125 35.203125 
L 44.28125 54.6875 
z
" id="DejaVuSans-120"/>
       <path d="M 31 75.875 
Q 24.46875 64.65625 21.28125 53.65625 
Q 18.109375 42.671875 18.109375 31.390625 
Q 18.109375 20.125 21.3125 9.0625 
Q 24.515625 -2 31 -13.1875 
L 23.1875 -13.1875 
Q 15.875 -1.703125 12.234375 9.375 
Q 8.59375 20.453125 8.59375 31.390625 
Q 8.59375 42.28125 12.203125 53.3125 
Q 15.828125 64.359375 23.1875 75.875 
z
" id="DejaVuSans-40"/>
       <path d="M 5.515625 54.6875 
L 48.1875 54.6875 
L 48.1875 46.484375 
L 14.40625 7.171875 
L 48.1875 7.171875 
L 48.1875 0 
L 4.296875 0 
L 4.296875 8.203125 
L 38.09375 47.515625 
L 5.515625 47.515625 
z
" id="DejaVuSans-122"/>
       <path d="M 4.890625 31.390625 
L 31.203125 31.390625 
L 31.203125 23.390625 
L 4.890625 23.390625 
z
" id="DejaVuSans-45"/>
       <path d="M 8.015625 75.875 
L 15.828125 75.875 
Q 23.140625 64.359375 26.78125 53.3125 
Q 30.421875 42.28125 30.421875 31.390625 
Q 30.421875 20.453125 26.78125 9.375 
Q 23.140625 -1.703125 15.828125 -13.1875 
L 8.015625 -13.1875 
Q 14.5 -2 17.703125 9.0625 
Q 20.90625 20.125 20.90625 31.390625 
Q 20.90625 42.671875 17.703125 53.65625 
Q 14.5 64.65625 8.015625 75.875 
z
" id="DejaVuSans-41"/>
      </defs>
      <use xlink:href="#DejaVuSans-101"/>
      <use x="59.773438" xlink:href="#DejaVuSans-120"/>
      <use x="118.953125" xlink:href="#DejaVuSans-112"/>
      <use x="182.429688" xlink:href="#DejaVuSans-114"/>
      <use x="221.292969" xlink:href="#DejaVuSans-101"/>
      <use x="282.816406" xlink:href="#DejaVuSans-115"/>
      <use x="334.916016" xlink:href="#DejaVuSans-115"/>
      <use x="387.015625" xlink:href="#DejaVuSans-105"/>
      <use x="414.798828" xlink:href="#DejaVuSans-111"/>
      <use x="475.980469" xlink:href="#DejaVuSans-110"/>
      <use x="539.359375" xlink:href="#DejaVuSans-32"/>
      <use x="571.146484" xlink:href="#DejaVuSans-40"/>
      <use x="610.160156" xlink:href="#DejaVuSans-122"/>
      <use x="662.650391" xlink:href="#DejaVuSans-45"/>
      <use x="698.734375" xlink:href="#DejaVuSans-115"/>
      <use x="750.833984" xlink:href="#DejaVuSans-99"/>
      <use x="805.814453" xlink:href="#DejaVuSans-111"/>
      <use x="866.996094" xlink:href="#DejaVuSans-114"/>
      <use x="905.859375" xlink:href="#DejaVuSans-101"/>
      <use x="967.382812" xlink:href="#DejaVuSans-41"/>
     </g>
    </g>
   </g>
   <g id="line2d_11">
    <path clip-path="url(#p6b10b35cb9)" d="M 271.51488 192.890881 
L 271.15776 193.220063 
L 270.80064 193.477662 
L 270.44352 193.665243 
L 270.0864 193.844386 
L 269.72928 193.937332 
L 269.37216 193.966303 
L 269.01504 193.943378 
L 268.65792 193.92967 
L 268.3008 193.833201 
L 267.94368 193.68586 
L 267.58656 193.379514 
L 267.22944 192.738446 
L 266.87232 191.805364 
L 266.5152 190.719012 
L 266.15808 189.436093 
L 265.80096 187.311753 
L 265.44384 183.673336 
L 265.08672 178.920231 
L 264.7296 173.600332 
L 264.37248 168.604122 
L 264.01536 164.065584 
L 263.65824 159.993945 
L 263.30112 156.706011 
L 262.944 154.218004 
L 262.58688 152.13262 
L 262.22976 150.17546 
L 261.87264 148.504488 
L 261.51552 146.873569 
L 261.1584 145.251501 
L 260.80128 143.882184 
L 260.44416 142.338002 
L 260.08704 140.741046 
L 259.72992 139.141235 
L 259.3728 137.559481 
L 259.01568 136.083523 
L 258.65856 134.659432 
L 258.30144 133.11197 
L 257.94432 131.434996 
L 257.5872 129.643514 
L 257.23008 127.565739 
L 256.87296 125.197422 
L 256.51584 122.333883 
L 256.15872 119.694933 
L 255.8016 117.654198 
L 255.44448 116.274773 
L 255.08736 115.064279 
L 254.73024 114.181846 
L 254.37312 114.811053 
L 254.016 118.45889 
L 253.65888 124.164396 
L 253.30176 131.045608 
L 252.94464 138.550013 
L 252.58752 146.628132 
L 252.2304 154.966969 
L 251.87328 163.045716 
L 251.51616 170.560285 
L 251.15904 176.528097 
L 250.80192 180.208518 
L 250.4448 182.414385 
L 250.08768 183.793895 
L 249.73056 184.673076 
L 249.37344 185.250924 
L 249.01632 185.715121 
L 248.6592 186.172963 
L 248.30208 186.594237 
L 247.94496 186.974426 
L 247.58784 187.271475 
L 247.23072 187.398825 
L 246.8736 187.338456 
L 246.51648 187.026895 
L 246.15936 186.614887 
L 245.80224 186.200883 
L 245.44512 185.716537 
L 245.088 185.195588 
L 244.73088 184.726074 
L 244.37376 184.159719 
L 244.01664 183.491319 
L 243.65952 182.983201 
L 243.3024 182.514136 
L 242.94528 182.004092 
L 242.58816 182.050407 
L 242.23104 182.394688 
L 241.87392 183.086285 
L 241.5168 183.793973 
L 241.15968 184.707594 
L 240.80256 185.777969 
L 240.44544 186.871514 
L 240.08832 187.960563 
L 239.7312 188.966783 
L 239.37408 189.762111 
L 239.01696 190.338938 
L 238.65984 190.821241 
L 238.30272 191.251315 
L 237.9456 191.461805 
L 237.58848 191.79145 
L 237.23136 192.109115 
L 236.87424 192.240052 
L 236.51712 192.356599 
L 236.16 192.5851 
" style="fill:none;stroke:#ff0000;stroke-linecap:square;stroke-opacity:0.5;stroke-width:1.5;"/>
    <defs>
     <path d="M 0 1.5 
C 0.397805 1.5 0.77937 1.341951 1.06066 1.06066 
C 1.341951 0.77937 1.5 0.397805 1.5 0 
C 1.5 -0.397805 1.341951 -0.77937 1.06066 -1.06066 
C 0.77937 -1.341951 0.397805 -1.5 0 -1.5 
C -0.397805 -1.5 -0.77937 -1.341951 -1.06066 -1.06066 
C -1.341951 -0.77937 -1.5 -0.397805 -1.5 0 
C -1.5 0.397805 -1.341951 0.77937 -1.06066 1.06066 
C -0.77937 1.341951 -0.397805 1.5 0 1.5 
z
" id="m65a4ffcac0" style="stroke:#ff0000;stroke-opacity:0.5;"/>
    </defs>
    <g clip-path="url(#p6b10b35cb9)">
     <use style="fill:#ff0000;fill-opacity:0.5;stroke:#ff0000;stroke-opacity:0.5;" x="271.51488" xlink:href="#m65a4ffcac0" y="192.890881"/>
     <use style="fill:#ff0000;fill-opacity:0.5;stroke:#ff0000;stroke-opacity:0.5;" x="271.15776" xlink:href="#m65a4ffcac0" y="193.220063"/>
     <use style="fill:#ff0000;fill-opacity:0.5;stroke:#ff0000;stroke-opacity:0.5;" x="270.80064" xlink:href="#m65a4ffcac0" y="193.477662"/>
     <use style="fill:#ff0000;fill-opacity:0.5;stroke:#ff0000;stroke-opacity:0.5;" x="270.44352" xlink:href="#m65a4ffcac0" y="193.665243"/>
     <use style="fill:#ff0000;fill-opacity:0.5;stroke:#ff0000;stroke-opacity:0.5;" x="270.0864" xlink:href="#m65a4ffcac0" y="193.844386"/>
     <use style="fill:#ff0000;fill-opacity:0.5;stroke:#ff0000;stroke-opacity:0.5;" x="269.72928" xlink:href="#m65a4ffcac0" y="193.937332"/>
     <use style="fill:#ff0000;fill-opacity:0.5;stroke:#ff0000;stroke-opacity:0.5;" x="269.37216" xlink:href="#m65a4ffcac0" y="193.966303"/>
     <use style="fill:#ff0000;fill-opacity:0.5;stroke:#ff0000;stroke-opacity:0.5;" x="269.01504" xlink:href="#m65a4ffcac0" y="193.943378"/>
     <use style="fill:#ff0000;fill-opacity:0.5;stroke:#ff0000;stroke-opacity:0.5;" x="268.65792" xlink:href="#m65a4ffcac0" y="193.92967"/>
     <use style="fill:#ff0000;fill-opacity:0.5;stroke:#ff0000;stroke-opacity:0.5;" x="268.3008" xlink:href="#m65a4ffcac0" y="193.833201"/>
     <use style="fill:#ff0000;fill-opacity:0.5;stroke:#ff0000;stroke-opacity:0.5;" x="267.94368" xlink:href="#m65a4ffcac0" y="193.68586"/>
     <use style="fill:#ff0000;fill-opacity:0.5;stroke:#ff0000;stroke-opacity:0.5;" x="267.58656" xlink:href="#m65a4ffcac0" y="193.379514"/>
     <use style="fill:#ff0000;fill-opacity:0.5;stroke:#ff0000;stroke-opacity:0.5;" x="267.22944" xlink:href="#m65a4ffcac0" y="192.738446"/>
     <use style="fill:#ff0000;fill-opacity:0.5;stroke:#ff0000;stroke-opacity:0.5;" x="266.87232" xlink:href="#m65a4ffcac0" y="191.805364"/>
     <use style="fill:#ff0000;fill-opacity:0.5;stroke:#ff0000;stroke-opacity:0.5;" x="266.5152" xlink:href="#m65a4ffcac0" y="190.719012"/>
     <use style="fill:#ff0000;fill-opacity:0.5;stroke:#ff0000;stroke-opacity:0.5;" x="266.15808" xlink:href="#m65a4ffcac0" y="189.436093"/>
     <use style="fill:#ff0000;fill-opacity:0.5;stroke:#ff0000;stroke-opacity:0.5;" x="265.80096" xlink:href="#m65a4ffcac0" y="187.311753"/>
     <use style="fill:#ff0000;fill-opacity:0.5;stroke:#ff0000;stroke-opacity:0.5;" x="265.44384" xlink:href="#m65a4ffcac0" y="183.673336"/>
     <use style="fill:#ff0000;fill-opacity:0.5;stroke:#ff0000;stroke-opacity:0.5;" x="265.08672" xlink:href="#m65a4ffcac0" y="178.920231"/>
     <use style="fill:#ff0000;fill-opacity:0.5;stroke:#ff0000;stroke-opacity:0.5;" x="264.7296" xlink:href="#m65a4ffcac0" y="173.600332"/>
     <use style="fill:#ff0000;fill-opacity:0.5;stroke:#ff0000;stroke-opacity:0.5;" x="264.37248" xlink:href="#m65a4ffcac0" y="168.604122"/>
     <use style="fill:#ff0000;fill-opacity:0.5;stroke:#ff0000;stroke-opacity:0.5;" x="264.01536" xlink:href="#m65a4ffcac0" y="164.065584"/>
     <use style="fill:#ff0000;fill-opacity:0.5;stroke:#ff0000;stroke-opacity:0.5;" x="263.65824" xlink:href="#m65a4ffcac0" y="159.993945"/>
     <use style="fill:#ff0000;fill-opacity:0.5;stroke:#ff0000;stroke-opacity:0.5;" x="263.30112" xlink:href="#m65a4ffcac0" y="156.706011"/>
     <use style="fill:#ff0000;fill-opacity:0.5;stroke:#ff0000;stroke-opacity:0.5;" x="262.944" xlink:href="#m65a4ffcac0" y="154.218004"/>
     <use style="fill:#ff0000;fill-opacity:0.5;stroke:#ff0000;stroke-opacity:0.5;" x="262.58688" xlink:href="#m65a4ffcac0" y="152.13262"/>
     <use style="fill:#ff0000;fill-opacity:0.5;stroke:#ff0000;stroke-opacity:0.5;" x="262.22976" xlink:href="#m65a4ffcac0" y="150.17546"/>
     <use style="fill:#ff0000;fill-opacity:0.5;stroke:#ff0000;stroke-opacity:0.5;" x="261.87264" xlink:href="#m65a4ffcac0" y="148.504488"/>
     <use style="fill:#ff0000;fill-opacity:0.5;stroke:#ff0000;stroke-opacity:0.5;" x="261.51552" xlink:href="#m65a4ffcac0" y="146.873569"/>
     <use style="fill:#ff0000;fill-opacity:0.5;stroke:#ff0000;stroke-opacity:0.5;" x="261.1584" xlink:href="#m65a4ffcac0" y="145.251501"/>
     <use style="fill:#ff0000;fill-opacity:0.5;stroke:#ff0000;stroke-opacity:0.5;" x="260.80128" xlink:href="#m65a4ffcac0" y="143.882184"/>
     <use style="fill:#ff0000;fill-opacity:0.5;stroke:#ff0000;stroke-opacity:0.5;" x="260.44416" xlink:href="#m65a4ffcac0" y="142.338002"/>
     <use style="fill:#ff0000;fill-opacity:0.5;stroke:#ff0000;stroke-opacity:0.5;" x="260.08704" xlink:href="#m65a4ffcac0" y="140.741046"/>
     <use style="fill:#ff0000;fill-opacity:0.5;stroke:#ff0000;stroke-opacity:0.5;" x="259.72992" xlink:href="#m65a4ffcac0" y="139.141235"/>
     <use style="fill:#ff0000;fill-opacity:0.5;stroke:#ff0000;stroke-opacity:0.5;" x="259.3728" xlink:href="#m65a4ffcac0" y="137.559481"/>
     <use style="fill:#ff0000;fill-opacity:0.5;stroke:#ff0000;stroke-opacity:0.5;" x="259.01568" xlink:href="#m65a4ffcac0" y="136.083523"/>
     <use style="fill:#ff0000;fill-opacity:0.5;stroke:#ff0000;stroke-opacity:0.5;" x="258.65856" xlink:href="#m65a4ffcac0" y="134.659432"/>
     <use style="fill:#ff0000;fill-opacity:0.5;stroke:#ff0000;stroke-opacity:0.5;" x="258.30144" xlink:href="#m65a4ffcac0" y="133.11197"/>
     <use style="fill:#ff0000;fill-opacity:0.5;stroke:#ff0000;stroke-opacity:0.5;" x="257.94432" xlink:href="#m65a4ffcac0" y="131.434996"/>
     <use style="fill:#ff0000;fill-opacity:0.5;stroke:#ff0000;stroke-opacity:0.5;" x="257.5872" xlink:href="#m65a4ffcac0" y="129.643514"/>
     <use style="fill:#ff0000;fill-opacity:0.5;stroke:#ff0000;stroke-opacity:0.5;" x="257.23008" xlink:href="#m65a4ffcac0" y="127.565739"/>
     <use style="fill:#ff0000;fill-opacity:0.5;stroke:#ff0000;stroke-opacity:0.5;" x="256.87296" xlink:href="#m65a4ffcac0" y="125.197422"/>
     <use style="fill:#ff0000;fill-opacity:0.5;stroke:#ff0000;stroke-opacity:0.5;" x="256.51584" xlink:href="#m65a4ffcac0" y="122.333883"/>
     <use style="fill:#ff0000;fill-opacity:0.5;stroke:#ff0000;stroke-opacity:0.5;" x="256.15872" xlink:href="#m65a4ffcac0" y="119.694933"/>
     <use style="fill:#ff0000;fill-opacity:0.5;stroke:#ff0000;stroke-opacity:0.5;" x="255.8016" xlink:href="#m65a4ffcac0" y="117.654198"/>
     <use style="fill:#ff0000;fill-opacity:0.5;stroke:#ff0000;stroke-opacity:0.5;" x="255.44448" xlink:href="#m65a4ffcac0" y="116.274773"/>
     <use style="fill:#ff0000;fill-opacity:0.5;stroke:#ff0000;stroke-opacity:0.5;" x="255.08736" xlink:href="#m65a4ffcac0" y="115.064279"/>
     <use style="fill:#ff0000;fill-opacity:0.5;stroke:#ff0000;stroke-opacity:0.5;" x="254.73024" xlink:href="#m65a4ffcac0" y="114.181846"/>
     <use style="fill:#ff0000;fill-opacity:0.5;stroke:#ff0000;stroke-opacity:0.5;" x="254.37312" xlink:href="#m65a4ffcac0" y="114.811053"/>
     <use style="fill:#ff0000;fill-opacity:0.5;stroke:#ff0000;stroke-opacity:0.5;" x="254.016" xlink:href="#m65a4ffcac0" y="118.45889"/>
     <use style="fill:#ff0000;fill-opacity:0.5;stroke:#ff0000;stroke-opacity:0.5;" x="253.65888" xlink:href="#m65a4ffcac0" y="124.164396"/>
     <use style="fill:#ff0000;fill-opacity:0.5;stroke:#ff0000;stroke-opacity:0.5;" x="253.30176" xlink:href="#m65a4ffcac0" y="131.045608"/>
     <use style="fill:#ff0000;fill-opacity:0.5;stroke:#ff0000;stroke-opacity:0.5;" x="252.94464" xlink:href="#m65a4ffcac0" y="138.550013"/>
     <use style="fill:#ff0000;fill-opacity:0.5;stroke:#ff0000;stroke-opacity:0.5;" x="252.58752" xlink:href="#m65a4ffcac0" y="146.628132"/>
     <use style="fill:#ff0000;fill-opacity:0.5;stroke:#ff0000;stroke-opacity:0.5;" x="252.2304" xlink:href="#m65a4ffcac0" y="154.966969"/>
     <use style="fill:#ff0000;fill-opacity:0.5;stroke:#ff0000;stroke-opacity:0.5;" x="251.87328" xlink:href="#m65a4ffcac0" y="163.045716"/>
     <use style="fill:#ff0000;fill-opacity:0.5;stroke:#ff0000;stroke-opacity:0.5;" x="251.51616" xlink:href="#m65a4ffcac0" y="170.560285"/>
     <use style="fill:#ff0000;fill-opacity:0.5;stroke:#ff0000;stroke-opacity:0.5;" x="251.15904" xlink:href="#m65a4ffcac0" y="176.528097"/>
     <use style="fill:#ff0000;fill-opacity:0.5;stroke:#ff0000;stroke-opacity:0.5;" x="250.80192" xlink:href="#m65a4ffcac0" y="180.208518"/>
     <use style="fill:#ff0000;fill-opacity:0.5;stroke:#ff0000;stroke-opacity:0.5;" x="250.4448" xlink:href="#m65a4ffcac0" y="182.414385"/>
     <use style="fill:#ff0000;fill-opacity:0.5;stroke:#ff0000;stroke-opacity:0.5;" x="250.08768" xlink:href="#m65a4ffcac0" y="183.793895"/>
     <use style="fill:#ff0000;fill-opacity:0.5;stroke:#ff0000;stroke-opacity:0.5;" x="249.73056" xlink:href="#m65a4ffcac0" y="184.673076"/>
     <use style="fill:#ff0000;fill-opacity:0.5;stroke:#ff0000;stroke-opacity:0.5;" x="249.37344" xlink:href="#m65a4ffcac0" y="185.250924"/>
     <use style="fill:#ff0000;fill-opacity:0.5;stroke:#ff0000;stroke-opacity:0.5;" x="249.01632" xlink:href="#m65a4ffcac0" y="185.715121"/>
     <use style="fill:#ff0000;fill-opacity:0.5;stroke:#ff0000;stroke-opacity:0.5;" x="248.6592" xlink:href="#m65a4ffcac0" y="186.172963"/>
     <use style="fill:#ff0000;fill-opacity:0.5;stroke:#ff0000;stroke-opacity:0.5;" x="248.30208" xlink:href="#m65a4ffcac0" y="186.594237"/>
     <use style="fill:#ff0000;fill-opacity:0.5;stroke:#ff0000;stroke-opacity:0.5;" x="247.94496" xlink:href="#m65a4ffcac0" y="186.974426"/>
     <use style="fill:#ff0000;fill-opacity:0.5;stroke:#ff0000;stroke-opacity:0.5;" x="247.58784" xlink:href="#m65a4ffcac0" y="187.271475"/>
     <use style="fill:#ff0000;fill-opacity:0.5;stroke:#ff0000;stroke-opacity:0.5;" x="247.23072" xlink:href="#m65a4ffcac0" y="187.398825"/>
     <use style="fill:#ff0000;fill-opacity:0.5;stroke:#ff0000;stroke-opacity:0.5;" x="246.8736" xlink:href="#m65a4ffcac0" y="187.338456"/>
     <use style="fill:#ff0000;fill-opacity:0.5;stroke:#ff0000;stroke-opacity:0.5;" x="246.51648" xlink:href="#m65a4ffcac0" y="187.026895"/>
     <use style="fill:#ff0000;fill-opacity:0.5;stroke:#ff0000;stroke-opacity:0.5;" x="246.15936" xlink:href="#m65a4ffcac0" y="186.614887"/>
     <use style="fill:#ff0000;fill-opacity:0.5;stroke:#ff0000;stroke-opacity:0.5;" x="245.80224" xlink:href="#m65a4ffcac0" y="186.200883"/>
     <use style="fill:#ff0000;fill-opacity:0.5;stroke:#ff0000;stroke-opacity:0.5;" x="245.44512" xlink:href="#m65a4ffcac0" y="185.716537"/>
     <use style="fill:#ff0000;fill-opacity:0.5;stroke:#ff0000;stroke-opacity:0.5;" x="245.088" xlink:href="#m65a4ffcac0" y="185.195588"/>
     <use style="fill:#ff0000;fill-opacity:0.5;stroke:#ff0000;stroke-opacity:0.5;" x="244.73088" xlink:href="#m65a4ffcac0" y="184.726074"/>
     <use style="fill:#ff0000;fill-opacity:0.5;stroke:#ff0000;stroke-opacity:0.5;" x="244.37376" xlink:href="#m65a4ffcac0" y="184.159719"/>
     <use style="fill:#ff0000;fill-opacity:0.5;stroke:#ff0000;stroke-opacity:0.5;" x="244.01664" xlink:href="#m65a4ffcac0" y="183.491319"/>
     <use style="fill:#ff0000;fill-opacity:0.5;stroke:#ff0000;stroke-opacity:0.5;" x="243.65952" xlink:href="#m65a4ffcac0" y="182.983201"/>
     <use style="fill:#ff0000;fill-opacity:0.5;stroke:#ff0000;stroke-opacity:0.5;" x="243.3024" xlink:href="#m65a4ffcac0" y="182.514136"/>
     <use style="fill:#ff0000;fill-opacity:0.5;stroke:#ff0000;stroke-opacity:0.5;" x="242.94528" xlink:href="#m65a4ffcac0" y="182.004092"/>
     <use style="fill:#ff0000;fill-opacity:0.5;stroke:#ff0000;stroke-opacity:0.5;" x="242.58816" xlink:href="#m65a4ffcac0" y="182.050407"/>
     <use style="fill:#ff0000;fill-opacity:0.5;stroke:#ff0000;stroke-opacity:0.5;" x="242.23104" xlink:href="#m65a4ffcac0" y="182.394688"/>
     <use style="fill:#ff0000;fill-opacity:0.5;stroke:#ff0000;stroke-opacity:0.5;" x="241.87392" xlink:href="#m65a4ffcac0" y="183.086285"/>
     <use style="fill:#ff0000;fill-opacity:0.5;stroke:#ff0000;stroke-opacity:0.5;" x="241.5168" xlink:href="#m65a4ffcac0" y="183.793973"/>
     <use style="fill:#ff0000;fill-opacity:0.5;stroke:#ff0000;stroke-opacity:0.5;" x="241.15968" xlink:href="#m65a4ffcac0" y="184.707594"/>
     <use style="fill:#ff0000;fill-opacity:0.5;stroke:#ff0000;stroke-opacity:0.5;" x="240.80256" xlink:href="#m65a4ffcac0" y="185.777969"/>
     <use style="fill:#ff0000;fill-opacity:0.5;stroke:#ff0000;stroke-opacity:0.5;" x="240.44544" xlink:href="#m65a4ffcac0" y="186.871514"/>
     <use style="fill:#ff0000;fill-opacity:0.5;stroke:#ff0000;stroke-opacity:0.5;" x="240.08832" xlink:href="#m65a4ffcac0" y="187.960563"/>
     <use style="fill:#ff0000;fill-opacity:0.5;stroke:#ff0000;stroke-opacity:0.5;" x="239.7312" xlink:href="#m65a4ffcac0" y="188.966783"/>
     <use style="fill:#ff0000;fill-opacity:0.5;stroke:#ff0000;stroke-opacity:0.5;" x="239.37408" xlink:href="#m65a4ffcac0" y="189.762111"/>
     <use style="fill:#ff0000;fill-opacity:0.5;stroke:#ff0000;stroke-opacity:0.5;" x="239.01696" xlink:href="#m65a4ffcac0" y="190.338938"/>
     <use style="fill:#ff0000;fill-opacity:0.5;stroke:#ff0000;stroke-opacity:0.5;" x="238.65984" xlink:href="#m65a4ffcac0" y="190.821241"/>
     <use style="fill:#ff0000;fill-opacity:0.5;stroke:#ff0000;stroke-opacity:0.5;" x="238.30272" xlink:href="#m65a4ffcac0" y="191.251315"/>
     <use style="fill:#ff0000;fill-opacity:0.5;stroke:#ff0000;stroke-opacity:0.5;" x="237.9456" xlink:href="#m65a4ffcac0" y="191.461805"/>
     <use style="fill:#ff0000;fill-opacity:0.5;stroke:#ff0000;stroke-opacity:0.5;" x="237.58848" xlink:href="#m65a4ffcac0" y="191.79145"/>
     <use style="fill:#ff0000;fill-opacity:0.5;stroke:#ff0000;stroke-opacity:0.5;" x="237.23136" xlink:href="#m65a4ffcac0" y="192.109115"/>
     <use style="fill:#ff0000;fill-opacity:0.5;stroke:#ff0000;stroke-opacity:0.5;" x="236.87424" xlink:href="#m65a4ffcac0" y="192.240052"/>
     <use style="fill:#ff0000;fill-opacity:0.5;stroke:#ff0000;stroke-opacity:0.5;" x="236.51712" xlink:href="#m65a4ffcac0" y="192.356599"/>
     <use style="fill:#ff0000;fill-opacity:0.5;stroke:#ff0000;stroke-opacity:0.5;" x="236.16" xlink:href="#m65a4ffcac0" y="192.5851"/>
    </g>
   </g>
   <g id="line2d_12">
    <path clip-path="url(#p6b10b35cb9)" d="M 271.51488 174.221637 
L 271.15776 172.388536 
L 270.80064 170.697456 
L 270.44352 169.332578 
L 270.0864 168.323334 
L 269.72928 167.529161 
L 269.37216 167.005122 
L 269.01504 166.689292 
L 268.65792 166.439377 
L 268.3008 166.277145 
L 267.94368 166.173472 
L 267.58656 166.060297 
L 267.22944 165.729128 
L 266.87232 165.31796 
L 266.5152 165.006018 
L 266.15808 164.657729 
L 265.80096 163.869928 
L 265.44384 162.83117 
L 265.08672 161.362295 
L 264.7296 159.796975 
L 264.37248 158.401284 
L 264.01536 157.112422 
L 263.65824 155.817673 
L 263.30112 154.418226 
L 262.944 153.370627 
L 262.58688 152.59258 
L 262.22976 151.957934 
L 261.87264 151.182504 
L 261.51552 150.370826 
L 261.1584 149.555446 
L 260.80128 148.890002 
L 260.44416 148.200486 
L 260.08704 147.467723 
L 259.72992 146.862038 
L 259.3728 146.31217 
L 259.01568 146.024683 
L 258.65856 145.867956 
L 258.30144 145.879516 
L 257.94432 145.954081 
L 257.5872 146.108531 
L 257.23008 146.419797 
L 256.87296 147.165358 
L 256.51584 148.483256 
L 256.15872 150.023472 
L 255.8016 151.967224 
L 255.44448 154.721744 
L 255.08736 157.779364 
L 254.73024 160.915787 
L 254.37312 163.992626 
L 254.016 167.165827 
L 253.65888 170.404379 
L 253.30176 173.229811 
L 252.94464 175.968536 
L 252.58752 179.153572 
L 252.2304 182.522073 
L 251.87328 185.434674 
L 251.51616 187.890351 
L 251.15904 189.851363 
L 250.80192 190.996565 
L 250.4448 191.933477 
L 250.08768 192.547367 
L 249.73056 192.847998 
L 249.37344 193.056553 
L 249.01632 193.150434 
L 248.6592 193.233677 
L 248.30208 193.308405 
L 247.94496 193.404886 
L 247.58784 193.473541 
L 247.23072 193.391107 
L 246.8736 193.199568 
L 246.51648 192.769772 
L 246.15936 192.33127 
L 245.80224 191.850513 
L 245.44512 191.163432 
L 245.088 190.47826 
L 244.73088 189.87819 
L 244.37376 189.311991 
L 244.01664 188.569393 
L 243.65952 187.844655 
L 243.3024 187.231799 
L 242.94528 186.827301 
L 242.58816 186.771954 
L 242.23104 186.917315 
L 241.87392 187.547766 
L 241.5168 188.109517 
L 241.15968 188.76589 
L 240.80256 189.412326 
L 240.44544 190.050183 
L 240.08832 190.47734 
L 239.7312 190.932102 
L 239.37408 191.410057 
L 239.01696 191.732678 
L 238.65984 190.80911 
L 238.30272 189.97827 
L 237.9456 188.125561 
L 237.58848 185.468882 
L 237.23136 182.591827 
L 236.87424 180.172609 
L 236.51712 177.998718 
L 236.16 176.040186 
" style="fill:none;stroke:#008000;stroke-linecap:square;stroke-opacity:0.5;stroke-width:1.5;"/>
    <defs>
     <path d="M 0 1.5 
C 0.397805 1.5 0.77937 1.341951 1.06066 1.06066 
C 1.341951 0.77937 1.5 0.397805 1.5 0 
C 1.5 -0.397805 1.341951 -0.77937 1.06066 -1.06066 
C 0.77937 -1.341951 0.397805 -1.5 0 -1.5 
C -0.397805 -1.5 -0.77937 -1.341951 -1.06066 -1.06066 
C -1.341951 -0.77937 -1.5 -0.397805 -1.5 0 
C -1.5 0.397805 -1.341951 0.77937 -1.06066 1.06066 
C -0.77937 1.341951 -0.397805 1.5 0 1.5 
z
" id="mb23fcf92cd" style="stroke:#008000;stroke-opacity:0.5;"/>
    </defs>
    <g clip-path="url(#p6b10b35cb9)">
     <use style="fill:#008000;fill-opacity:0.5;stroke:#008000;stroke-opacity:0.5;" x="271.51488" xlink:href="#mb23fcf92cd" y="174.221637"/>
     <use style="fill:#008000;fill-opacity:0.5;stroke:#008000;stroke-opacity:0.5;" x="271.15776" xlink:href="#mb23fcf92cd" y="172.388536"/>
     <use style="fill:#008000;fill-opacity:0.5;stroke:#008000;stroke-opacity:0.5;" x="270.80064" xlink:href="#mb23fcf92cd" y="170.697456"/>
     <use style="fill:#008000;fill-opacity:0.5;stroke:#008000;stroke-opacity:0.5;" x="270.44352" xlink:href="#mb23fcf92cd" y="169.332578"/>
     <use style="fill:#008000;fill-opacity:0.5;stroke:#008000;stroke-opacity:0.5;" x="270.0864" xlink:href="#mb23fcf92cd" y="168.323334"/>
     <use style="fill:#008000;fill-opacity:0.5;stroke:#008000;stroke-opacity:0.5;" x="269.72928" xlink:href="#mb23fcf92cd" y="167.529161"/>
     <use style="fill:#008000;fill-opacity:0.5;stroke:#008000;stroke-opacity:0.5;" x="269.37216" xlink:href="#mb23fcf92cd" y="167.005122"/>
     <use style="fill:#008000;fill-opacity:0.5;stroke:#008000;stroke-opacity:0.5;" x="269.01504" xlink:href="#mb23fcf92cd" y="166.689292"/>
     <use style="fill:#008000;fill-opacity:0.5;stroke:#008000;stroke-opacity:0.5;" x="268.65792" xlink:href="#mb23fcf92cd" y="166.439377"/>
     <use style="fill:#008000;fill-opacity:0.5;stroke:#008000;stroke-opacity:0.5;" x="268.3008" xlink:href="#mb23fcf92cd" y="166.277145"/>
     <use style="fill:#008000;fill-opacity:0.5;stroke:#008000;stroke-opacity:0.5;" x="267.94368" xlink:href="#mb23fcf92cd" y="166.173472"/>
     <use style="fill:#008000;fill-opacity:0.5;stroke:#008000;stroke-opacity:0.5;" x="267.58656" xlink:href="#mb23fcf92cd" y="166.060297"/>
     <use style="fill:#008000;fill-opacity:0.5;stroke:#008000;stroke-opacity:0.5;" x="267.22944" xlink:href="#mb23fcf92cd" y="165.729128"/>
     <use style="fill:#008000;fill-opacity:0.5;stroke:#008000;stroke-opacity:0.5;" x="266.87232" xlink:href="#mb23fcf92cd" y="165.31796"/>
     <use style="fill:#008000;fill-opacity:0.5;stroke:#008000;stroke-opacity:0.5;" x="266.5152" xlink:href="#mb23fcf92cd" y="165.006018"/>
     <use style="fill:#008000;fill-opacity:0.5;stroke:#008000;stroke-opacity:0.5;" x="266.15808" xlink:href="#mb23fcf92cd" y="164.657729"/>
     <use style="fill:#008000;fill-opacity:0.5;stroke:#008000;stroke-opacity:0.5;" x="265.80096" xlink:href="#mb23fcf92cd" y="163.869928"/>
     <use style="fill:#008000;fill-opacity:0.5;stroke:#008000;stroke-opacity:0.5;" x="265.44384" xlink:href="#mb23fcf92cd" y="162.83117"/>
     <use style="fill:#008000;fill-opacity:0.5;stroke:#008000;stroke-opacity:0.5;" x="265.08672" xlink:href="#mb23fcf92cd" y="161.362295"/>
     <use style="fill:#008000;fill-opacity:0.5;stroke:#008000;stroke-opacity:0.5;" x="264.7296" xlink:href="#mb23fcf92cd" y="159.796975"/>
     <use style="fill:#008000;fill-opacity:0.5;stroke:#008000;stroke-opacity:0.5;" x="264.37248" xlink:href="#mb23fcf92cd" y="158.401284"/>
     <use style="fill:#008000;fill-opacity:0.5;stroke:#008000;stroke-opacity:0.5;" x="264.01536" xlink:href="#mb23fcf92cd" y="157.112422"/>
     <use style="fill:#008000;fill-opacity:0.5;stroke:#008000;stroke-opacity:0.5;" x="263.65824" xlink:href="#mb23fcf92cd" y="155.817673"/>
     <use style="fill:#008000;fill-opacity:0.5;stroke:#008000;stroke-opacity:0.5;" x="263.30112" xlink:href="#mb23fcf92cd" y="154.418226"/>
     <use style="fill:#008000;fill-opacity:0.5;stroke:#008000;stroke-opacity:0.5;" x="262.944" xlink:href="#mb23fcf92cd" y="153.370627"/>
     <use style="fill:#008000;fill-opacity:0.5;stroke:#008000;stroke-opacity:0.5;" x="262.58688" xlink:href="#mb23fcf92cd" y="152.59258"/>
     <use style="fill:#008000;fill-opacity:0.5;stroke:#008000;stroke-opacity:0.5;" x="262.22976" xlink:href="#mb23fcf92cd" y="151.957934"/>
     <use style="fill:#008000;fill-opacity:0.5;stroke:#008000;stroke-opacity:0.5;" x="261.87264" xlink:href="#mb23fcf92cd" y="151.182504"/>
     <use style="fill:#008000;fill-opacity:0.5;stroke:#008000;stroke-opacity:0.5;" x="261.51552" xlink:href="#mb23fcf92cd" y="150.370826"/>
     <use style="fill:#008000;fill-opacity:0.5;stroke:#008000;stroke-opacity:0.5;" x="261.1584" xlink:href="#mb23fcf92cd" y="149.555446"/>
     <use style="fill:#008000;fill-opacity:0.5;stroke:#008000;stroke-opacity:0.5;" x="260.80128" xlink:href="#mb23fcf92cd" y="148.890002"/>
     <use style="fill:#008000;fill-opacity:0.5;stroke:#008000;stroke-opacity:0.5;" x="260.44416" xlink:href="#mb23fcf92cd" y="148.200486"/>
     <use style="fill:#008000;fill-opacity:0.5;stroke:#008000;stroke-opacity:0.5;" x="260.08704" xlink:href="#mb23fcf92cd" y="147.467723"/>
     <use style="fill:#008000;fill-opacity:0.5;stroke:#008000;stroke-opacity:0.5;" x="259.72992" xlink:href="#mb23fcf92cd" y="146.862038"/>
     <use style="fill:#008000;fill-opacity:0.5;stroke:#008000;stroke-opacity:0.5;" x="259.3728" xlink:href="#mb23fcf92cd" y="146.31217"/>
     <use style="fill:#008000;fill-opacity:0.5;stroke:#008000;stroke-opacity:0.5;" x="259.01568" xlink:href="#mb23fcf92cd" y="146.024683"/>
     <use style="fill:#008000;fill-opacity:0.5;stroke:#008000;stroke-opacity:0.5;" x="258.65856" xlink:href="#mb23fcf92cd" y="145.867956"/>
     <use style="fill:#008000;fill-opacity:0.5;stroke:#008000;stroke-opacity:0.5;" x="258.30144" xlink:href="#mb23fcf92cd" y="145.879516"/>
     <use style="fill:#008000;fill-opacity:0.5;stroke:#008000;stroke-opacity:0.5;" x="257.94432" xlink:href="#mb23fcf92cd" y="145.954081"/>
     <use style="fill:#008000;fill-opacity:0.5;stroke:#008000;stroke-opacity:0.5;" x="257.5872" xlink:href="#mb23fcf92cd" y="146.108531"/>
     <use style="fill:#008000;fill-opacity:0.5;stroke:#008000;stroke-opacity:0.5;" x="257.23008" xlink:href="#mb23fcf92cd" y="146.419797"/>
     <use style="fill:#008000;fill-opacity:0.5;stroke:#008000;stroke-opacity:0.5;" x="256.87296" xlink:href="#mb23fcf92cd" y="147.165358"/>
     <use style="fill:#008000;fill-opacity:0.5;stroke:#008000;stroke-opacity:0.5;" x="256.51584" xlink:href="#mb23fcf92cd" y="148.483256"/>
     <use style="fill:#008000;fill-opacity:0.5;stroke:#008000;stroke-opacity:0.5;" x="256.15872" xlink:href="#mb23fcf92cd" y="150.023472"/>
     <use style="fill:#008000;fill-opacity:0.5;stroke:#008000;stroke-opacity:0.5;" x="255.8016" xlink:href="#mb23fcf92cd" y="151.967224"/>
     <use style="fill:#008000;fill-opacity:0.5;stroke:#008000;stroke-opacity:0.5;" x="255.44448" xlink:href="#mb23fcf92cd" y="154.721744"/>
     <use style="fill:#008000;fill-opacity:0.5;stroke:#008000;stroke-opacity:0.5;" x="255.08736" xlink:href="#mb23fcf92cd" y="157.779364"/>
     <use style="fill:#008000;fill-opacity:0.5;stroke:#008000;stroke-opacity:0.5;" x="254.73024" xlink:href="#mb23fcf92cd" y="160.915787"/>
     <use style="fill:#008000;fill-opacity:0.5;stroke:#008000;stroke-opacity:0.5;" x="254.37312" xlink:href="#mb23fcf92cd" y="163.992626"/>
     <use style="fill:#008000;fill-opacity:0.5;stroke:#008000;stroke-opacity:0.5;" x="254.016" xlink:href="#mb23fcf92cd" y="167.165827"/>
     <use style="fill:#008000;fill-opacity:0.5;stroke:#008000;stroke-opacity:0.5;" x="253.65888" xlink:href="#mb23fcf92cd" y="170.404379"/>
     <use style="fill:#008000;fill-opacity:0.5;stroke:#008000;stroke-opacity:0.5;" x="253.30176" xlink:href="#mb23fcf92cd" y="173.229811"/>
     <use style="fill:#008000;fill-opacity:0.5;stroke:#008000;stroke-opacity:0.5;" x="252.94464" xlink:href="#mb23fcf92cd" y="175.968536"/>
     <use style="fill:#008000;fill-opacity:0.5;stroke:#008000;stroke-opacity:0.5;" x="252.58752" xlink:href="#mb23fcf92cd" y="179.153572"/>
     <use style="fill:#008000;fill-opacity:0.5;stroke:#008000;stroke-opacity:0.5;" x="252.2304" xlink:href="#mb23fcf92cd" y="182.522073"/>
     <use style="fill:#008000;fill-opacity:0.5;stroke:#008000;stroke-opacity:0.5;" x="251.87328" xlink:href="#mb23fcf92cd" y="185.434674"/>
     <use style="fill:#008000;fill-opacity:0.5;stroke:#008000;stroke-opacity:0.5;" x="251.51616" xlink:href="#mb23fcf92cd" y="187.890351"/>
     <use style="fill:#008000;fill-opacity:0.5;stroke:#008000;stroke-opacity:0.5;" x="251.15904" xlink:href="#mb23fcf92cd" y="189.851363"/>
     <use style="fill:#008000;fill-opacity:0.5;stroke:#008000;stroke-opacity:0.5;" x="250.80192" xlink:href="#mb23fcf92cd" y="190.996565"/>
     <use style="fill:#008000;fill-opacity:0.5;stroke:#008000;stroke-opacity:0.5;" x="250.4448" xlink:href="#mb23fcf92cd" y="191.933477"/>
     <use style="fill:#008000;fill-opacity:0.5;stroke:#008000;stroke-opacity:0.5;" x="250.08768" xlink:href="#mb23fcf92cd" y="192.547367"/>
     <use style="fill:#008000;fill-opacity:0.5;stroke:#008000;stroke-opacity:0.5;" x="249.73056" xlink:href="#mb23fcf92cd" y="192.847998"/>
     <use style="fill:#008000;fill-opacity:0.5;stroke:#008000;stroke-opacity:0.5;" x="249.37344" xlink:href="#mb23fcf92cd" y="193.056553"/>
     <use style="fill:#008000;fill-opacity:0.5;stroke:#008000;stroke-opacity:0.5;" x="249.01632" xlink:href="#mb23fcf92cd" y="193.150434"/>
     <use style="fill:#008000;fill-opacity:0.5;stroke:#008000;stroke-opacity:0.5;" x="248.6592" xlink:href="#mb23fcf92cd" y="193.233677"/>
     <use style="fill:#008000;fill-opacity:0.5;stroke:#008000;stroke-opacity:0.5;" x="248.30208" xlink:href="#mb23fcf92cd" y="193.308405"/>
     <use style="fill:#008000;fill-opacity:0.5;stroke:#008000;stroke-opacity:0.5;" x="247.94496" xlink:href="#mb23fcf92cd" y="193.404886"/>
     <use style="fill:#008000;fill-opacity:0.5;stroke:#008000;stroke-opacity:0.5;" x="247.58784" xlink:href="#mb23fcf92cd" y="193.473541"/>
     <use style="fill:#008000;fill-opacity:0.5;stroke:#008000;stroke-opacity:0.5;" x="247.23072" xlink:href="#mb23fcf92cd" y="193.391107"/>
     <use style="fill:#008000;fill-opacity:0.5;stroke:#008000;stroke-opacity:0.5;" x="246.8736" xlink:href="#mb23fcf92cd" y="193.199568"/>
     <use style="fill:#008000;fill-opacity:0.5;stroke:#008000;stroke-opacity:0.5;" x="246.51648" xlink:href="#mb23fcf92cd" y="192.769772"/>
     <use style="fill:#008000;fill-opacity:0.5;stroke:#008000;stroke-opacity:0.5;" x="246.15936" xlink:href="#mb23fcf92cd" y="192.33127"/>
     <use style="fill:#008000;fill-opacity:0.5;stroke:#008000;stroke-opacity:0.5;" x="245.80224" xlink:href="#mb23fcf92cd" y="191.850513"/>
     <use style="fill:#008000;fill-opacity:0.5;stroke:#008000;stroke-opacity:0.5;" x="245.44512" xlink:href="#mb23fcf92cd" y="191.163432"/>
     <use style="fill:#008000;fill-opacity:0.5;stroke:#008000;stroke-opacity:0.5;" x="245.088" xlink:href="#mb23fcf92cd" y="190.47826"/>
     <use style="fill:#008000;fill-opacity:0.5;stroke:#008000;stroke-opacity:0.5;" x="244.73088" xlink:href="#mb23fcf92cd" y="189.87819"/>
     <use style="fill:#008000;fill-opacity:0.5;stroke:#008000;stroke-opacity:0.5;" x="244.37376" xlink:href="#mb23fcf92cd" y="189.311991"/>
     <use style="fill:#008000;fill-opacity:0.5;stroke:#008000;stroke-opacity:0.5;" x="244.01664" xlink:href="#mb23fcf92cd" y="188.569393"/>
     <use style="fill:#008000;fill-opacity:0.5;stroke:#008000;stroke-opacity:0.5;" x="243.65952" xlink:href="#mb23fcf92cd" y="187.844655"/>
     <use style="fill:#008000;fill-opacity:0.5;stroke:#008000;stroke-opacity:0.5;" x="243.3024" xlink:href="#mb23fcf92cd" y="187.231799"/>
     <use style="fill:#008000;fill-opacity:0.5;stroke:#008000;stroke-opacity:0.5;" x="242.94528" xlink:href="#mb23fcf92cd" y="186.827301"/>
     <use style="fill:#008000;fill-opacity:0.5;stroke:#008000;stroke-opacity:0.5;" x="242.58816" xlink:href="#mb23fcf92cd" y="186.771954"/>
     <use style="fill:#008000;fill-opacity:0.5;stroke:#008000;stroke-opacity:0.5;" x="242.23104" xlink:href="#mb23fcf92cd" y="186.917315"/>
     <use style="fill:#008000;fill-opacity:0.5;stroke:#008000;stroke-opacity:0.5;" x="241.87392" xlink:href="#mb23fcf92cd" y="187.547766"/>
     <use style="fill:#008000;fill-opacity:0.5;stroke:#008000;stroke-opacity:0.5;" x="241.5168" xlink:href="#mb23fcf92cd" y="188.109517"/>
     <use style="fill:#008000;fill-opacity:0.5;stroke:#008000;stroke-opacity:0.5;" x="241.15968" xlink:href="#mb23fcf92cd" y="188.76589"/>
     <use style="fill:#008000;fill-opacity:0.5;stroke:#008000;stroke-opacity:0.5;" x="240.80256" xlink:href="#mb23fcf92cd" y="189.412326"/>
     <use style="fill:#008000;fill-opacity:0.5;stroke:#008000;stroke-opacity:0.5;" x="240.44544" xlink:href="#mb23fcf92cd" y="190.050183"/>
     <use style="fill:#008000;fill-opacity:0.5;stroke:#008000;stroke-opacity:0.5;" x="240.08832" xlink:href="#mb23fcf92cd" y="190.47734"/>
     <use style="fill:#008000;fill-opacity:0.5;stroke:#008000;stroke-opacity:0.5;" x="239.7312" xlink:href="#mb23fcf92cd" y="190.932102"/>
     <use style="fill:#008000;fill-opacity:0.5;stroke:#008000;stroke-opacity:0.5;" x="239.37408" xlink:href="#mb23fcf92cd" y="191.410057"/>
     <use style="fill:#008000;fill-opacity:0.5;stroke:#008000;stroke-opacity:0.5;" x="239.01696" xlink:href="#mb23fcf92cd" y="191.732678"/>
     <use style="fill:#008000;fill-opacity:0.5;stroke:#008000;stroke-opacity:0.5;" x="238.65984" xlink:href="#mb23fcf92cd" y="190.80911"/>
     <use style="fill:#008000;fill-opacity:0.5;stroke:#008000;stroke-opacity:0.5;" x="238.30272" xlink:href="#mb23fcf92cd" y="189.97827"/>
     <use style="fill:#008000;fill-opacity:0.5;stroke:#008000;stroke-opacity:0.5;" x="237.9456" xlink:href="#mb23fcf92cd" y="188.125561"/>
     <use style="fill:#008000;fill-opacity:0.5;stroke:#008000;stroke-opacity:0.5;" x="237.58848" xlink:href="#mb23fcf92cd" y="185.468882"/>
     <use style="fill:#008000;fill-opacity:0.5;stroke:#008000;stroke-opacity:0.5;" x="237.23136" xlink:href="#mb23fcf92cd" y="182.591827"/>
     <use style="fill:#008000;fill-opacity:0.5;stroke:#008000;stroke-opacity:0.5;" x="236.87424" xlink:href="#mb23fcf92cd" y="180.172609"/>
     <use style="fill:#008000;fill-opacity:0.5;stroke:#008000;stroke-opacity:0.5;" x="236.51712" xlink:href="#mb23fcf92cd" y="177.998718"/>
     <use style="fill:#008000;fill-opacity:0.5;stroke:#008000;stroke-opacity:0.5;" x="236.16" xlink:href="#mb23fcf92cd" y="176.040186"/>
    </g>
   </g>
   <g id="patch_3">
    <path d="M 57.6 307.584 
L 57.6 41.472 
" style="fill:none;stroke:#000000;stroke-linecap:square;stroke-linejoin:miter;stroke-width:0.8;"/>
   </g>
   <g id="patch_4">
    <path d="M 414.72 307.584 
L 414.72 41.472 
" style="fill:none;stroke:#000000;stroke-linecap:square;stroke-linejoin:miter;stroke-width:0.8;"/>
   </g>
   <g id="patch_5">
    <path d="M 57.6 307.584 
L 414.72 307.584 
" style="fill:none;stroke:#000000;stroke-linecap:square;stroke-linejoin:miter;stroke-width:0.8;"/>
   </g>
   <g id="patch_6">
    <path d="M 57.6 41.472 
L 414.72 41.472 
" style="fill:none;stroke:#000000;stroke-linecap:square;stroke-linejoin:miter;stroke-width:0.8;"/>
   </g>
   <g id="text_13">
    <!-- TUBA1C -->
    <g transform="translate(211.875937 35.472)scale(0.12 -0.12)">
     <defs>
      <path d="M -0.296875 72.90625 
L 61.375 72.90625 
L 61.375 64.59375 
L 35.5 64.59375 
L 35.5 0 
L 25.59375 0 
L 25.59375 64.59375 
L -0.296875 64.59375 
z
" id="DejaVuSans-84"/>
      <path d="M 8.6875 72.90625 
L 18.609375 72.90625 
L 18.609375 28.609375 
Q 18.609375 16.890625 22.84375 11.734375 
Q 27.09375 6.59375 36.625 6.59375 
Q 46.09375 6.59375 50.34375 11.734375 
Q 54.59375 16.890625 54.59375 28.609375 
L 54.59375 72.90625 
L 64.5 72.90625 
L 64.5 27.390625 
Q 64.5 13.140625 57.4375 5.859375 
Q 50.390625 -1.421875 36.625 -1.421875 
Q 22.796875 -1.421875 15.734375 5.859375 
Q 8.6875 13.140625 8.6875 27.390625 
z
" id="DejaVuSans-85"/>
      <path d="M 19.671875 34.8125 
L 19.671875 8.109375 
L 35.5 8.109375 
Q 43.453125 8.109375 47.28125 11.40625 
Q 51.125 14.703125 51.125 21.484375 
Q 51.125 28.328125 47.28125 31.5625 
Q 43.453125 34.8125 35.5 34.8125 
z
M 19.671875 64.796875 
L 19.671875 42.828125 
L 34.28125 42.828125 
Q 41.5 42.828125 45.03125 45.53125 
Q 48.578125 48.25 48.578125 53.8125 
Q 48.578125 59.328125 45.03125 62.0625 
Q 41.5 64.796875 34.28125 64.796875 
z
M 9.8125 72.90625 
L 35.015625 72.90625 
Q 46.296875 72.90625 52.390625 68.21875 
Q 58.5 63.53125 58.5 54.890625 
Q 58.5 48.1875 55.375 44.234375 
Q 52.25 40.28125 46.1875 39.3125 
Q 53.46875 37.75 57.5 32.78125 
Q 61.53125 27.828125 61.53125 20.40625 
Q 61.53125 10.640625 54.890625 5.3125 
Q 48.25 0 35.984375 0 
L 9.8125 0 
z
" id="DejaVuSans-66"/>
      <path d="M 34.1875 63.1875 
L 20.796875 26.90625 
L 47.609375 26.90625 
z
M 28.609375 72.90625 
L 39.796875 72.90625 
L 67.578125 0 
L 57.328125 0 
L 50.6875 18.703125 
L 17.828125 18.703125 
L 11.1875 0 
L 0.78125 0 
z
" id="DejaVuSans-65"/>
      <path d="M 12.40625 8.296875 
L 28.515625 8.296875 
L 28.515625 63.921875 
L 10.984375 60.40625 
L 10.984375 69.390625 
L 28.421875 72.90625 
L 38.28125 72.90625 
L 38.28125 8.296875 
L 54.390625 8.296875 
L 54.390625 0 
L 12.40625 0 
z
" id="DejaVuSans-49"/>
      <path d="M 64.40625 67.28125 
L 64.40625 56.890625 
Q 59.421875 61.53125 53.78125 63.8125 
Q 48.140625 66.109375 41.796875 66.109375 
Q 29.296875 66.109375 22.65625 58.46875 
Q 16.015625 50.828125 16.015625 36.375 
Q 16.015625 21.96875 22.65625 14.328125 
Q 29.296875 6.6875 41.796875 6.6875 
Q 48.140625 6.6875 53.78125 8.984375 
Q 59.421875 11.28125 64.40625 15.921875 
L 64.40625 5.609375 
Q 59.234375 2.09375 53.4375 0.328125 
Q 47.65625 -1.421875 41.21875 -1.421875 
Q 24.65625 -1.421875 15.125 8.703125 
Q 5.609375 18.84375 5.609375 36.375 
Q 5.609375 53.953125 15.125 64.078125 
Q 24.65625 74.21875 41.21875 74.21875 
Q 47.75 74.21875 53.53125 72.484375 
Q 59.328125 70.75 64.40625 67.28125 
z
" id="DejaVuSans-67"/>
     </defs>
     <use xlink:href="#DejaVuSans-84"/>
     <use x="61.083984" xlink:href="#DejaVuSans-85"/>
     <use x="134.277344" xlink:href="#DejaVuSans-66"/>
     <use x="202.880859" xlink:href="#DejaVuSans-65"/>
     <use x="271.289062" xlink:href="#DejaVuSans-49"/>
     <use x="334.912109" xlink:href="#DejaVuSans-67"/>
    </g>
   </g>
  </g>
 </g>
 <defs>
  <clipPath id="p6b10b35cb9">
   <rect height="266.112" width="357.12" x="57.6" y="41.472"/>
  </clipPath>
 </defs>
</svg>
